<svg width="105" height="105" viewBox="0 0 105 105" fill="none" xmlns="http://www.w3.org/2000/svg">
    <path opacity="0.09" d="M49 2.02072C51.1658 0.770295 53.8342 0.770296 56 2.02073L94.4663 24.2293C96.6321 25.4797 97.9663 27.7906 97.9663 30.2915V74.7085C97.9663 77.2094 96.6321 79.5203 94.4663 80.7707L56 102.979C53.8342 104.23 51.1658 104.23 49 102.979L10.5337 80.7707C8.36786 79.5203 7.03366 77.2094 7.03366 74.7085V30.2915C7.03366 27.7906 8.36786 25.4797 10.5337 24.2293L49 2.02072Z" fill="#FFB800"/>
    <path d="M49.0005 14.5207C51.1663 13.2703 53.8347 13.2703 56.0005 14.5207L83.6415 30.4793C85.8073 31.7297 87.1415 34.0406 87.1415 36.5415V68.4585C87.1415 70.9594 85.8073 73.2703 83.6415 74.5207L56.0005 90.4793C53.8347 91.7297 51.1663 91.7297 49.0005 90.4793L21.3595 74.5207C19.1937 73.2703 17.8595 70.9594 17.8595 68.4585V36.5415C17.8595 34.0406 19.1937 31.7297 21.3595 30.4793L49.0005 14.5207Z" fill="#FFB800"/>
    <path d="M42.3125 67.2498C41.9976 67.2498 41.6955 67.1247 41.4728 66.902C41.2501 66.6793 41.125 66.3772 41.125 66.0623V39.9373C41.125 39.7309 41.1788 39.5282 41.2811 39.3489C41.3834 39.1697 41.5306 39.0202 41.7082 38.9152C41.8859 38.8102 42.0878 38.7533 42.2941 38.7501C42.5005 38.747 42.7041 38.7976 42.8849 38.897L66.6349 51.9595C66.8211 52.0621 66.9763 52.2127 67.0845 52.3956C67.1926 52.5786 67.2496 52.7873 67.2496 52.9998C67.2496 53.2123 67.1926 53.421 67.0845 53.604C66.9763 53.7869 66.8211 53.9375 66.6349 54.04L42.8849 67.1025C42.7095 67.1991 42.5127 67.2497 42.3125 67.2498ZM43.5 41.9442V64.0554L63.5984 52.9998L43.5 41.9442Z" fill="black"/>
</svg>
