<svg width="105" height="105" viewBox="0 0 105 105" fill="none" xmlns="http://www.w3.org/2000/svg">
    <path opacity="0.09" d="M49 2.02072C51.1658 0.770295 53.8342 0.770296 56 2.02073L94.4663 24.2293C96.6321 25.4797 97.9663 27.7906 97.9663 30.2915V74.7085C97.9663 77.2094 96.6321 79.5203 94.4663 80.7707L56 102.979C53.8342 104.23 51.1658 104.23 49 102.979L10.5337 80.7707C8.36786 79.5203 7.03366 77.2094 7.03366 74.7085V30.2915C7.03366 27.7906 8.36786 25.4797 10.5337 24.2293L49 2.02072Z" fill="#FFB800"/>
    <path d="M49.5 15.0207C51.6658 13.7703 54.3342 13.7703 56.5 15.0207L84.141 30.9793C86.3068 32.2297 87.641 34.5406 87.641 37.0415V68.9585C87.641 71.4594 86.3068 73.7703 84.141 75.0207L56.5 90.9793C54.3342 92.2297 51.6658 92.2297 49.5 90.9793L21.859 75.0207C19.6932 73.7703 18.359 71.4594 18.359 68.9585V37.0415C18.359 34.5406 19.6932 32.2297 21.859 30.9793L49.5 15.0207Z" fill="#FFB800"/>
    <g clip-path="url(#clip0)">
        <path d="M33.2893 36.9239C32.9888 36.6912 32.9338 36.2589 33.1666 35.9583C33.3993 35.6578 33.8317 35.6028 34.1322 35.8356L34.4146 36.0543L34.6953 35.6919C34.928 35.3913 35.3604 35.3363 35.6609 35.5691C35.9615 35.8018 36.0164 36.2341 35.7837 36.5348L35.503 36.8972L40.6084 40.8508L42.1642 39.8903C42.4083 39.7396 42.7205 39.7561 42.9473 39.9318L47.6299 43.558L47.6525 43.5288C47.8852 43.2283 48.3176 43.1733 48.6181 43.4061L62.6857 54.2997C62.8301 54.4114 62.9241 54.576 62.9471 54.7571L63.1249 56.1556L65.574 59.6831L67.138 59.9924C67.2725 60.019 67.3959 60.0851 67.4925 60.1824L72.7631 65.482C72.9004 65.6201 72.9729 65.8099 72.9624 66.0044C72.9519 66.1989 72.8595 66.3799 72.7081 66.5023L68.0261 70.2914C67.9256 70.3728 67.8054 70.4232 67.6798 70.4392C67.6123 70.4478 67.5433 70.4464 67.4749 70.4345C67.2791 70.4004 67.1077 70.2834 67.0047 70.1136L60.6448 59.6374L59.8292 60.1501C59.4662 60.3783 59.2026 60.7315 59.0872 61.1445L58.0737 64.7721C58.0245 64.9482 57.9072 65.0975 57.7478 65.187C57.6697 65.2308 57.5847 65.2587 57.4976 65.2697C57.4067 65.2813 57.3137 65.2747 57.2238 65.2494L54.4931 64.4786C54.1579 64.384 53.9462 64.0539 54.0002 63.7097L54.8129 58.5186L51.9369 56.2915C50.804 57.2255 49.5334 57.9878 48.1666 58.5432C46.9862 59.023 45.7482 59.3454 44.4892 59.5054C43.2968 59.6571 42.0854 59.6631 40.887 59.5191C40.5293 59.4761 40.2652 59.1647 40.2814 58.8047L40.4734 54.5458C40.4822 54.3504 40.5737 54.1681 40.725 54.0443C40.8764 53.9203 41.0733 53.8668 41.2664 53.8967C44.3747 54.3785 47.4992 53.199 49.5119 50.8092L49.1754 49.8446L45.7101 47.161C45.5657 47.0493 45.4716 46.8847 45.4486 46.7036C45.4342 46.5901 45.4484 46.4759 45.4886 46.3709L40.1426 42.231L33.2893 36.9239ZM67.7723 68.7257L71.2491 65.912L66.6646 61.3022L65.0337 60.9797C64.8585 60.9451 64.7037 60.8436 64.6019 60.6969L62.433 57.5731L61.6307 58.6091L67.7723 68.7257ZM60.4219 57.9218L61.7447 56.2138L61.6175 55.2136L61.6174 55.2136L51.9462 47.7243L50.5313 49.5514L50.871 50.5255L60.4219 57.9218ZM54.8518 56.8076L55.433 57.2578L56.139 56.3461L55.5576 55.8959L54.8518 56.8076ZM56.9335 63.7371L57.7612 60.7742C57.9688 60.0309 58.4432 59.3953 59.0965 58.9846L59.3446 58.8286L57.2274 57.189L56.2083 58.5048L55.4546 63.3196L56.9335 63.7371ZM53.7633 55.9647L54.4693 55.0531L53.7566 54.5012C53.5057 54.7953 53.2444 55.0794 52.9719 55.3518L53.7633 55.9647ZM41.8153 55.3464L41.6861 58.2131C43.7138 58.3577 45.7622 58.0345 47.6483 57.268C49.582 56.482 51.305 55.2412 52.6684 53.6586L50.3929 51.8965C48.2362 54.3288 45.0552 55.6067 41.8153 55.3464ZM49.6354 48.4597L50.8577 46.8814L48.3713 44.956C48.3642 44.9661 48.3577 44.9763 48.3502 44.9863L47.1506 46.5354L49.6354 48.4597ZM46.3082 45.2645L46.7871 44.6462L42.4816 41.3121L41.771 41.7508L46.3082 45.2645Z" fill="black"/>
        <path d="M57.1621 53.5374C57.3948 53.2368 57.8271 53.1818 58.1277 53.4146L59.6142 54.5657C59.9148 54.7985 59.9697 55.2308 59.737 55.5314C59.6206 55.6817 59.4543 55.7706 59.2796 55.7928C59.1049 55.815 58.9217 55.7706 58.7714 55.6541L57.2849 54.503C56.9843 54.2702 56.9294 53.838 57.1621 53.5374Z" fill="black"/>
    </g>
    <defs>
        <clipPath id="clip0">
            <rect width="38.8318" height="38.8318" fill="white" transform="matrix(-0.992014 0.126132 0.126132 0.992014 70 31)"/>
        </clipPath>
    </defs>
</svg>
