<svg width="105" height="105" viewBox="0 0 105 105" fill="none" xmlns="http://www.w3.org/2000/svg">
    <path opacity="0.09" d="M49 2.02072C51.1658 0.770295 53.8342 0.770296 56 2.02073L94.4663 24.2293C96.6321 25.4797 97.9663 27.7906 97.9663 30.2915V74.7085C97.9663 77.2094 96.6321 79.5203 94.4663 80.7707L56 102.979C53.8342 104.23 51.1658 104.23 49 102.979L10.5337 80.7707C8.36786 79.5203 7.03366 77.2094 7.03366 74.7085V30.2915C7.03366 27.7906 8.36786 25.4797 10.5337 24.2293L49 2.02072Z" fill="#FFB800"/>
    <path d="M49.0005 14.5207C51.1663 13.2703 53.8347 13.2703 56.0005 14.5207L83.6415 30.4793C85.8073 31.7297 87.1415 34.0406 87.1415 36.5415V68.4585C87.1415 70.9594 85.8073 73.2703 83.6415 74.5207L56.0005 90.4793C53.8347 91.7297 51.1663 91.7297 49.0005 90.4793L21.3595 74.5207C19.1937 73.2703 17.8595 70.9594 17.8595 68.4585V36.5415C17.8595 34.0406 19.1937 31.7297 21.3595 30.4793L49.0005 14.5207Z" fill="#FFB800"/>
    <g clip-path="url(#clip0)">
        <path d="M52.4955 37.5C52.4717 37.5007 52.448 37.5019 52.4243 37.5038C52.3236 37.5113 52.2243 37.5323 52.1293 37.5663C52.0574 37.5922 51.9883 37.6252 51.923 37.665L39.9205 44.5938C39.7514 44.6912 39.611 44.8315 39.5134 45.0005C39.4157 45.1694 39.3643 45.3611 39.3643 45.5563V59.445C39.3643 59.6463 39.4189 59.8437 39.5224 60.0163C39.6259 60.1889 39.7743 60.3302 39.9518 60.425L51.9493 67.3513L52.0168 67.3875V67.39C52.0505 67.4064 52.0852 67.421 52.1205 67.4338L52.1355 67.4388C52.1705 67.4513 52.2055 67.4613 52.2418 67.4688C52.2543 67.47 52.2555 67.4725 52.2618 67.4738C52.3833 67.4998 52.5082 67.5061 52.6318 67.4925C52.6679 67.4886 52.7039 67.4823 52.7393 67.4738C52.7518 67.4738 52.753 67.4713 52.7593 67.4688C52.7951 67.4604 52.8306 67.4504 52.8655 67.4388L52.8805 67.4338C52.9158 67.421 52.9504 67.4064 52.9843 67.39V67.3875C53.0071 67.3761 53.0296 67.364 53.0518 67.3513L65.0505 60.425C65.2278 60.33 65.3759 60.1887 65.4791 60.0161C65.5824 59.8435 65.6369 59.6461 65.6368 59.445V45.6L65.6355 45.5675V45.5575C65.6354 45.3969 65.6006 45.2381 65.5332 45.0922C65.4659 44.9463 65.3677 44.8168 65.2455 44.7125L65.2093 44.6825C65.2093 44.68 65.1968 44.6763 65.1968 44.6738C65.1543 44.6415 65.1096 44.6122 65.063 44.5863L53.0668 37.6588C52.8921 37.5537 52.6918 37.4987 52.488 37.5H52.4955ZM52.508 40.3163C52.598 40.3163 52.688 40.34 52.7693 40.3863L60.9405 45.1038C61.0199 45.1496 61.0859 45.2156 61.1318 45.295C61.1776 45.3745 61.2018 45.4646 61.2018 45.5563C61.2018 45.648 61.1776 45.7381 61.1318 45.8175C61.0859 45.897 61.0199 45.9629 60.9405 46.0088L52.7693 50.7263C52.6898 50.7721 52.5997 50.7963 52.508 50.7963C52.4163 50.7963 52.3262 50.7721 52.2468 50.7263L44.0755 46.0088C43.9961 45.9629 43.9301 45.897 43.8843 45.8175C43.8384 45.7381 43.8143 45.648 43.8143 45.5563C43.8143 45.4646 43.8384 45.3745 43.8843 45.295C43.9301 45.2156 43.9961 45.1496 44.0755 45.1038L52.2468 40.3863C52.3262 40.3405 52.4163 40.3164 52.508 40.3163ZM42.408 48.3888C42.5024 48.3876 42.5953 48.4122 42.6768 48.46L50.8318 53.1675C50.9109 53.2133 50.9765 53.2791 51.0221 53.3583C51.0678 53.4376 51.0918 53.5274 51.0918 53.6188V63.035C51.0918 63.1266 51.0677 63.2166 51.0219 63.2959C50.9761 63.3752 50.9102 63.441 50.8309 63.4868C50.7516 63.5325 50.6616 63.5566 50.57 63.5565C50.4784 63.5564 50.3885 63.5322 50.3093 63.4863L42.1555 58.7788C42.076 58.733 42.01 58.6671 41.9641 58.5876C41.9182 58.5082 41.8941 58.418 41.8943 58.3263V48.9125C41.8943 48.6113 42.1393 48.395 42.4068 48.39L42.408 48.3888ZM62.608 48.3888C62.8768 48.3938 63.1205 48.61 63.1205 48.9113V58.3263C63.1205 58.5138 63.0205 58.685 62.8605 58.7788L54.7055 63.4863C54.6263 63.5322 54.5363 63.5564 54.4447 63.5565C54.3532 63.5566 54.2632 63.5325 54.1839 63.4868C54.1045 63.441 54.0386 63.3752 53.9929 63.2959C53.9471 63.2166 53.923 63.1266 53.923 63.035V53.6188C53.923 53.4325 54.023 53.2613 54.1843 53.1688L62.338 48.46C62.4198 48.412 62.5132 48.3874 62.608 48.3888Z" fill="#0E0D1E"/>
    </g>
    <defs>
        <clipPath id="clip0">
            <rect width="30" height="30" fill="white" transform="translate(37.5005 37.5)"/>
        </clipPath>
    </defs>
</svg>
