<svg width="105" height="105" viewBox="0 0 105 105" fill="none" xmlns="http://www.w3.org/2000/svg">
    <path opacity="0.09" d="M49 2.02072C51.1658 0.770295 53.8342 0.770296 56 2.02073L94.4663 24.2293C96.6321 25.4797 97.9663 27.7906 97.9663 30.2915V74.7085C97.9663 77.2094 96.6321 79.5203 94.4663 80.7707L56 102.979C53.8342 104.23 51.1658 104.23 49 102.979L10.5337 80.7707C8.36786 79.5203 7.03366 77.2094 7.03366 74.7085V30.2915C7.03366 27.7906 8.36786 25.4797 10.5337 24.2293L49 2.02072Z" fill="#FFB800"/>
    <path d="M49.0005 14.5207C51.1663 13.2703 53.8347 13.2703 56.0005 14.5207L83.6415 30.4793C85.8073 31.7297 87.1415 34.0406 87.1415 36.5415V68.4585C87.1415 70.9594 85.8073 73.2703 83.6415 74.5207L56.0005 90.4793C53.8347 91.7297 51.1663 91.7297 49.0005 90.4793L21.3595 74.5207C19.1937 73.2703 17.8595 70.9594 17.8595 68.4585V36.5415C17.8595 34.0406 19.1937 31.7297 21.3595 30.4793L49.0005 14.5207Z" fill="#FFB800"/>
    <path d="M64.5188 45.0437L56.2063 36.7312C55.9688 36.4937 55.7312 36.375 55.375 36.375H43.5C42.1938 36.375 41.125 37.4438 41.125 38.75V67.25C41.125 68.5563 42.1938 69.625 43.5 69.625H62.5C63.8062 69.625 64.875 68.5563 64.875 67.25V45.875C64.875 45.5188 64.7563 45.2812 64.5188 45.0437ZM55.375 39.225L62.025 45.875H55.375V39.225ZM62.5 67.25H43.5V38.75H53V45.875C53 47.1812 54.0688 48.25 55.375 48.25H62.5V67.25Z" fill="black"/>
    <path d="M45.875 60.125H60.125V62.5H45.875V60.125Z" fill="black"/>
    <path d="M45.875 53H60.125V55.375H45.875V53Z" fill="black"/>
</svg>
