<svg width="111" height="193" viewBox="0 0 111 193" fill="none" xmlns="http://www.w3.org/2000/svg">
    <path d="M0.5 190.37L1.43327 188.75L2.71898 186.517L2.28571 186.268L4.85714 181.804L5.29041 182.053L7.86184 177.589L7.42857 177.339L10 172.875L10.4333 173.125L13.0047 168.66L12.5714 168.411L15.1429 163.946L15.5761 164.196L18.1476 159.732L17.7143 159.482L20.2857 155.018L20.719 155.267L23.2904 150.803L22.8571 150.554L25.4286 146.089L25.8618 146.339L28.4333 141.875L28 141.625L30.5714 137.161L31.0047 137.41L33.5761 132.946L33.1429 132.696L35.7143 128.232L36.1476 128.482L38.719 124.017L38.2857 123.768L40.8571 119.304L41.2904 119.553L43.8618 115.089L43.4286 114.839L46 110.375L46.4333 110.625L49.0047 106.16L48.5714 105.911L51.1429 101.446L51.5761 101.696L54.1476 97.2317L53.7143 96.9821L56.2857 92.5179L56.719 92.7674L59.2904 88.3031L58.8571 88.0536L61.4286 83.5893L61.8618 83.8388L64.4333 79.3746L64 79.125L66.5714 74.6607L67.0047 74.9103L69.5761 70.446L69.1429 70.1964L71.7143 65.7321L72.1476 65.9817L74.719 61.5174L74.2857 61.2679L76.8571 56.8036L77.2904 57.0531L79.8618 52.5889L79.4286 52.3393L82 47.875L82.4333 48.1246L85.0047 43.6603L84.5714 43.4107L87.1429 38.9464L87.5761 39.196L90.1475 34.7317L89.7143 34.4821L92.2857 30.0179L92.719 30.2674L95.2904 25.8031L94.8571 25.5536L97.4286 21.0893L97.8618 21.3389L100.433 16.8746L100 16.625L102.571 12.1607L103.005 12.4103L105.576 7.946L105.143 7.69644L107.714 3.23215L108.148 3.4817L109.433 1.24956L109.865 0.5H109H106.75V1H102.25V0.5H97.75V1H93.25V0.5H88.75V1H84.25V0.5H79.75V1H75.25V0.5H70.75V1H66.25V0.5H61.75V1H57.25V0.5H52.75V1H48.25V0.5H43.75V1H39.25V0.5H34.75V1H30.25V0.5H25.75V1H21.25V0.5H16.75V1H12.25V0.5H7.75V1H3.25V0.5H1H0.5V1V4.08333H1V10.25H0.5V16.4167H1V22.5833H0.5V28.75H1V34.9167H0.5V41.0833H1V47.25H0.5V53.4167H1V59.5833H0.5V65.75H1V71.9167H0.5V75V77.3646H1V82.0938H0.5V86.8229H1V91.5521H0.5V96.2812H1V101.01H0.5V105.74H1V110.469H0.5V115.198H1V119.927H0.5V124.656H1V129.385H0.5V134.115H1V138.844H0.5V143.573H1V148.302H0.5V153.031H1V157.76H0.5V162.49H1V167.219H0.5V171.948H1V176.677H0.5V181.406H1V186.135H0.5V188.5V190.37Z" fill="url(#paint0_linear)" stroke="#00A3FF" stroke-dasharray="5 5 5 5 5 5"/>
    <defs>
        <linearGradient id="paint0_linear" x1="76.5" y1="392" x2="50.5643" y2="-143.574" gradientUnits="userSpaceOnUse">
            <stop stop-opacity="0"/>
            <stop offset="1" stop-color="#00A3FF"/>
        </linearGradient>
    </defs>
</svg>
