<svg width="111" height="193" viewBox="0 0 111 193" fill="none" xmlns="http://www.w3.org/2000/svg">
    <path d="M110.5 190.37L109.567 188.75L108.281 186.517L108.714 186.268L106.143 181.804L105.71 182.053L103.138 177.589L103.571 177.339L101 172.875L100.567 173.125L97.9953 168.66L98.4286 168.411L95.8571 163.946L95.4239 164.196L92.8524 159.732L93.2857 159.482L90.7143 155.018L90.281 155.267L87.7096 150.803L88.1429 150.554L85.5714 146.089L85.1382 146.339L82.5667 141.875L83 141.625L80.4286 137.161L79.9953 137.41L77.4239 132.946L77.8571 132.696L75.2857 128.232L74.8524 128.482L72.281 124.017L72.7143 123.768L70.1429 119.304L69.7096 119.553L67.1382 115.089L67.5714 114.839L65 110.375L64.5667 110.625L61.9953 106.16L62.4286 105.911L59.8571 101.446L59.4239 101.696L56.8524 97.2317L57.2857 96.9821L54.7143 92.5179L54.281 92.7674L51.7096 88.3031L52.1429 88.0536L49.5714 83.5893L49.1382 83.8388L46.5667 79.3746L47 79.125L44.4286 74.6607L43.9953 74.9103L41.4239 70.446L41.8571 70.1964L39.2857 65.7321L38.8524 65.9817L36.281 61.5174L36.7143 61.2679L34.1429 56.8036L33.7096 57.0531L31.1382 52.5889L31.5714 52.3393L29 47.875L28.5667 48.1246L25.9953 43.6603L26.4286 43.4107L23.8571 38.9464L23.4239 39.196L20.8525 34.7317L21.2857 34.4821L18.7143 30.0179L18.281 30.2674L15.7096 25.8031L16.1429 25.5536L13.5714 21.0893L13.1382 21.3389L10.5667 16.8746L11 16.625L8.42857 12.1607L7.99531 12.4103L5.42388 7.946L5.85715 7.69644L3.28572 3.23215L2.85245 3.4817L1.56673 1.24956L1.13499 0.5H2H4.25V1H8.75V0.5H13.25V1H17.75V0.5H22.25V1H26.75V0.5H31.25V1H35.75V0.5H40.25V1H44.75V0.5H49.25V1H53.75V0.5H58.25V1H62.75V0.5H67.25V1H71.75V0.5H76.25V1H80.75V0.5H85.25V1H89.75V0.5H94.25V1H98.75V0.5H103.25V1H107.75V0.5H110H110.5V1V4.08333H110V10.25H110.5V16.4167H110V22.5833H110.5V28.75H110V34.9167H110.5V41.0833H110V47.25H110.5V53.4167H110V59.5833H110.5V65.75H110V71.9167H110.5V75V77.3646H110V82.0938H110.5V86.8229H110V91.5521H110.5V96.2812H110V101.01H110.5V105.74H110V110.469H110.5V115.198H110V119.927H110.5V124.656H110V129.385H110.5V134.115H110V138.844H110.5V143.573H110V148.302H110.5V153.031H110V157.76H110.5V162.49H110V167.219H110.5V171.948H110V176.677H110.5V181.406H110V186.135H110.5V188.5V190.37Z" fill="url(#paint0_linear)" stroke="#FF005C" stroke-dasharray="5 5 5 5 5 5"/>
    <defs>
        <linearGradient id="paint0_linear" x1="-69.5" y1="256.5" x2="110" y2="-276" gradientUnits="userSpaceOnUse">
            <stop/>
            <stop offset="1" stop-color="#FF005C"/>
        </linearGradient>
    </defs>
</svg>
