<svg width="15" height="15" viewBox="0 0 15 15" fill="none" xmlns="http://www.w3.org/2000/svg">
    <path d="M9.09708 6.99998L14.7671 1.32998C14.8945 1.18119 14.9611 0.989797 14.9535 0.794049C14.946 0.598301 14.8648 0.412615 14.7263 0.274097C14.5878 0.135579 14.4021 0.0544314 14.2063 0.0468705C14.0106 0.0393096 13.8192 0.105892 13.6704 0.233313L8.00041 5.90331L2.33041 0.225535C2.18162 0.0981145 1.99023 0.0315323 1.79448 0.0390932C1.59873 0.0466541 1.41305 0.127801 1.27453 0.266319C1.13601 0.404837 1.05487 0.590523 1.0473 0.786271C1.03974 0.982019 1.10633 1.17341 1.23375 1.3222L6.90375 6.99998L1.22597 12.67C1.14455 12.7397 1.07842 12.8255 1.03174 12.922C0.985053 13.0185 0.958819 13.1236 0.954681 13.2307C0.950544 13.3378 0.968593 13.4446 1.0077 13.5445C1.0468 13.6443 1.10611 13.7349 1.18191 13.8107C1.25771 13.8865 1.34835 13.9458 1.44816 13.9849C1.54797 14.024 1.65478 14.0421 1.7619 14.0379C1.86901 14.0338 1.97412 14.0076 2.07061 13.9609C2.16711 13.9142 2.25291 13.8481 2.32264 13.7666L8.00041 8.09665L13.6704 13.7666C13.8192 13.8941 14.0106 13.9606 14.2063 13.9531C14.4021 13.9455 14.5878 13.8644 14.7263 13.7259C14.8648 13.5873 14.946 13.4017 14.9535 13.2059C14.9611 13.0102 14.8945 12.8188 14.7671 12.67L9.09708 6.99998Z" fill="#4C4B62"/>
</svg>
