<svg width="18" height="24" viewBox="0 0 18 24" fill="none" xmlns="http://www.w3.org/2000/svg">
    <path d="M6 0C5.20435 0 4.44129 0.31607 3.87868 0.87868C3.31607 1.44129 3 2.20435 3 3V18C3 18.7956 3.31607 19.5587 3.87868 20.1213C4.44129 20.6839 5.20435 21 6 21H15C15.7956 21 16.5587 20.6839 17.1213 20.1213C17.6839 19.5587 18 18.7956 18 18V3C18 2.20435 17.6839 1.44129 17.1213 0.87868C16.5587 0.31607 15.7956 0 15 0H6ZM4.5 3C4.5 2.60218 4.65804 2.22064 4.93934 1.93934C5.22064 1.65804 5.60217 1.5 6 1.5H15C15.3978 1.5 15.7794 1.65804 16.0607 1.93934C16.342 2.22064 16.5 2.60218 16.5 3V18C16.5 18.3978 16.342 18.7794 16.0607 19.0607C15.7794 19.342 15.3978 19.5 15 19.5H6C5.60217 19.5 5.22064 19.342 4.93934 19.0607C4.65804 18.7794 4.5 18.3978 4.5 18V3Z" fill="#3D3B54"/>
    <path d="M0 6.0001C1.33777e-05 5.4735 0.138639 4.95619 0.401943 4.50014C0.665247 4.0441 1.04395 3.6654 1.5 3.4021V18.7501C1.5 19.7447 1.89509 20.6985 2.59835 21.4017C3.30161 22.105 4.25544 22.5001 5.25 22.5001H14.598C14.3347 22.9561 13.956 23.3349 13.5 23.5982C13.0439 23.8615 12.5266 24.0001 12 24.0001H5.25C3.85761 24.0001 2.52226 23.447 1.53769 22.4624C0.553124 21.4778 0 20.1425 0 18.7501V6.0001Z" fill="#3D3B54"/>
</svg>
