<svg width="21" height="21" viewBox="0 0 21 21" fill="none" xmlns="http://www.w3.org/2000/svg">
    <g clip-path="url(#clip0)">
        <path fill-rule="evenodd" clip-rule="evenodd" d="M4.1998 1.3999C3.8285 1.3999 3.47241 1.5474 3.20986 1.80995C2.9473 2.0725 2.7998 2.4286 2.7998 2.7999V18.1999C2.7998 18.5712 2.9473 18.9273 3.20986 19.1899C3.47241 19.4524 3.8285 19.5999 4.1998 19.5999H14.6998C14.8855 19.5999 15.0635 19.5262 15.1948 19.3949C15.3261 19.2636 15.3998 19.0856 15.3998 18.8999C15.3998 18.7143 15.3261 18.5362 15.1948 18.4049C15.0635 18.2737 14.8855 18.1999 14.6998 18.1999H4.1998V2.7999H14.6998C14.8855 2.7999 15.0635 2.72615 15.1948 2.59488C15.3261 2.4636 15.3998 2.28555 15.3998 2.0999C15.3998 1.91425 15.3261 1.7362 15.1948 1.60493C15.0635 1.47365 14.8855 1.3999 14.6998 1.3999H4.1998ZM17.6454 6.8543C17.514 6.72286 17.3357 6.64902 17.1498 6.64902C16.9639 6.64902 16.7856 6.72286 16.6542 6.8543C16.5228 6.98574 16.4489 7.16402 16.4489 7.3499C16.4489 7.53579 16.5228 7.71406 16.6542 7.8455L18.61 9.7999H9.0998C8.91415 9.7999 8.73611 9.87365 8.60483 10.0049C8.47356 10.1362 8.39981 10.3143 8.39981 10.4999C8.39981 10.6856 8.47356 10.8636 8.60483 10.9949C8.73611 11.1262 8.91415 11.1999 9.0998 11.1999H18.61L16.6542 13.1543C16.5228 13.2857 16.4489 13.464 16.4489 13.6499C16.4489 13.8358 16.5228 14.0141 16.6542 14.1455C16.7856 14.2769 16.9639 14.3508 17.1498 14.3508C17.3357 14.3508 17.514 14.2769 17.6454 14.1455L20.7954 10.9955C20.8606 10.9305 20.9123 10.8532 20.9476 10.7682C20.9829 10.6831 21.0011 10.592 21.0011 10.4999C21.0011 10.4078 20.9829 10.3167 20.9476 10.2316C20.9123 10.1466 20.8606 10.0693 20.7954 10.0043L17.6454 6.8543Z" fill="#5B5A6F"/>
    </g>
    <defs>
        <clipPath id="clip0">
            <rect width="21" height="21" fill="white"/>
        </clipPath>
    </defs>
</svg>
