<svg width="17" height="18" viewBox="0 0 17 18" fill="none" xmlns="http://www.w3.org/2000/svg">
<path d="M16.7224 7.4017H9.04435V10.5575H13.4306C13.2415 11.5776 12.6677 12.4403 11.8028 13.0184C11.0717 13.5072 10.1388 13.7962 9.04223 13.7962C6.91924 13.7962 5.12351 12.3617 4.48173 10.4342C4.32022 9.94546 4.22671 9.42268 4.22671 8.88503C4.22671 8.34737 4.32022 7.8246 4.48173 7.33582C5.12564 5.41046 6.92136 3.97601 9.04435 3.97601C10.2408 3.97601 11.314 4.38828 12.1598 5.19583L14.4974 2.85607C13.0842 1.5385 11.2417 0.730957 9.04435 0.730957C5.8588 0.730957 3.10253 2.55856 1.76158 5.22345C1.20905 6.32426 0.894531 7.56958 0.894531 8.88715C0.894531 10.2047 1.20905 11.4479 1.76158 12.5487C3.10253 15.2136 5.8588 17.0412 9.04435 17.0412C11.246 17.0412 13.0906 16.3102 14.4379 15.0649C15.9786 13.6453 16.869 11.5542 16.869 9.06991C16.869 8.49188 16.818 7.93723 16.7224 7.4017Z" fill="white"/>
</svg>
