<svg width="30" height="30" viewBox="0 0 30 30" fill="none" xmlns="http://www.w3.org/2000/svg">
    <path d="M17.8125 22.4895H21.5625V26.1614H17.8125V22.4895Z" fill="#3C3B53"/>
    <path d="M24.375 22.4895H28.125V26.1614H24.375V22.4895Z" fill="#3C3B53"/>
    <path d="M17.8125 16.0637H21.5625V19.7356H17.8125V16.0637Z" fill="#3C3B53"/>
    <path d="M24.375 16.0637H28.125V19.7356H24.375V16.0637Z" fill="#3C3B53"/>
    <path d="M15.9375 22.4895H3.75V9.63794H26.25V14.2278H28.125V9.63794C28.1245 9.15117 27.9268 8.68447 27.5753 8.34027C27.2238 7.99607 26.7471 7.80249 26.25 7.802H20.625V4.13013C20.6245 3.64336 20.4268 3.17666 20.0753 2.83246C19.7238 2.48826 19.2471 2.29468 18.75 2.29419H11.25C10.7529 2.29468 10.2762 2.48826 9.92472 2.83246C9.5732 3.17666 9.3755 3.64336 9.375 4.13013V7.802H3.75C3.25287 7.80249 2.77625 7.99607 2.42472 8.34027C2.0732 8.68447 1.8755 9.15117 1.875 9.63794V22.4895C1.8755 22.9763 2.0732 23.443 2.42472 23.7872C2.77625 24.1314 3.25287 24.325 3.75 24.3254H15.9375V22.4895ZM11.25 4.13013H18.75V7.802H11.25V4.13013Z" fill="#3C3B53"/>
</svg>
