<svg width="26" height="28" viewBox="0 0 26 28" fill="none" xmlns="http://www.w3.org/2000/svg">
    <path d="M14.9995 20.8301H18.1367V24.1416H14.9995V20.8301Z" fill="#3C3B53"/>
    <path d="M20.4897 20.8301H23.627V24.1416H20.4897V20.8301Z" fill="#3C3B53"/>
    <path d="M14.9995 15.0352H18.1367V18.3467H14.9995V15.0352Z" fill="#3C3B53"/>
    <path d="M20.4897 15.0352H23.627V18.3467H20.4897V15.0352Z" fill="#3C3B53"/>
    <path d="M13.4311 20.8305H3.23512V9.24022H22.0585V13.3796H23.6271V9.24022C23.6267 8.80122 23.4613 8.38033 23.1672 8.06991C22.8731 7.75949 22.4744 7.5849 22.0585 7.58446H17.3526V4.27295C17.3522 3.83395 17.1868 3.41305 16.8927 3.10263C16.5987 2.79221 16.1999 2.61763 15.784 2.61719H9.50957C9.09368 2.61763 8.69493 2.79221 8.40085 3.10263C8.10677 3.41305 7.94137 3.83395 7.94096 4.27295V7.58446H3.23512C2.81922 7.5849 2.42048 7.75949 2.1264 8.06991C1.83232 8.38033 1.66692 8.80122 1.6665 9.24022V20.8305C1.66692 21.2695 1.83232 21.6904 2.1264 22.0008C2.42048 22.3113 2.81922 22.4859 3.23512 22.4863H13.4311V20.8305ZM9.50957 4.27295H15.784V7.58446H9.50957V4.27295Z" fill="#3C3B53"/>
</svg>
