<svg width="75" height="31" viewBox="0 0 75 31" fill="none" xmlns="http://www.w3.org/2000/svg">
    <path d="M1.05664 11.3593V15.5222L11.7468 14.2822V9.78718L1.05664 11.3593ZM4.47918 15.7879V30.0258H8.38763V15.3672L4.47918 15.7879ZM13.2045 9.58789V30.0258H17.3242V8.96789L13.2045 9.58789ZM18.1059 8.85718V13.5515L24.0637 12.865V7.97147L18.1059 8.85718ZM18.1059 17.0722V21.855L22.0144 21.6336V16.7179L18.1059 17.0722ZM18.1059 25.3093V30.0258H24.0637V25.11L18.1059 25.3093ZM39.4651 5.71289V30.0258H44.8735V4.91575L39.4651 5.71289ZM45.8876 4.76075V10.3629L53.7679 9.45504V3.58718L45.8876 4.76075ZM45.8876 14.57V20.2607L51.0637 19.9729V14.105L45.8876 14.57ZM45.8876 24.4236V30.0258H53.7679V24.18L45.8876 24.4236ZM25.6271 7.75004V30.0258H30.3383V7.06361L25.6271 7.75004ZM31.2257 24.8886V30.0258H38.0496V24.6672L31.2257 24.8886ZM71.451 3.32147C69.7397 1.63861 67.2257 0.930038 64.5003 1.35075V7.55075C65.62 7.48432 66.5074 7.92718 66.9088 8.79075C67.5426 10.1636 66.8876 12.2229 65.3454 14.1272C62.958 17.0722 56.6412 23.095 56.6412 23.095L65.7257 22.785C71.282 17.0943 73.2679 13.6622 73.6271 9.34432C73.8172 7.06361 73.0144 4.87147 71.451 3.32147ZM73.944 30.0258V23.5379L55.5214 24.1136L73.944 30.0258ZM55.5214 24.1136V30.0258H73.944L55.5214 24.1136ZM63.444 1.48361C58.0989 2.67932 55.4581 6.79789 55.775 13.5293L61.4792 12.9979C61.2257 9.18932 62.3242 8.30361 63.444 7.79432V1.48361Z" fill="#F0F3F7"/>
</svg>
