<svg width="108" height="40" viewBox="0 0 108 40" fill="none" xmlns="http://www.w3.org/2000/svg">
    <g clip-path="url(#clip0)">
        <path d="M112.321 30.8614V15.3582H114.906V16.4972C115.267 15.9277 115.953 15.5481 116.51 15.3582C117.066 15.1684 117.622 15.1051 118.212 15.1051C119.651 15.1051 121.157 15.5797 122.4 16.8136C123.546 17.9526 124.135 19.3764 124.135 21.0216C124.135 21.781 123.971 22.5403 123.677 23.2364C123.383 23.9644 122.957 24.5971 122.433 25.1347C121.877 25.7045 121.223 26.1475 120.535 26.4319C119.815 26.7166 119.161 26.8748 118.31 26.8748C117.688 26.8748 117.066 26.7802 116.51 26.5901C115.953 26.4003 115.168 25.9896 114.874 25.515V30.8936H112.321V30.8614H112.321ZM118.114 17.2885C117.165 17.2885 116.347 17.5733 115.692 18.2377C115.005 18.9338 114.743 19.9146 114.743 20.927C114.743 21.9708 115.005 23.0152 115.66 23.7109C116.347 24.4073 117.165 24.6601 118.147 24.6601C119.129 24.6601 119.947 24.2808 120.536 23.6793C121.223 22.9836 121.551 22.0657 121.551 21.0533C121.551 19.9459 121.223 18.9967 120.536 18.3007C119.946 17.6679 119.095 17.2885 118.114 17.2885ZM139.026 15.3582H141.742L145.276 23.3316L148.581 15.3582H151.298L144.523 30.8614H141.84L144 25.9573L139.026 15.3582ZM134.902 26.6537V25.4827C134.608 25.9573 133.822 26.4003 133.266 26.5585C132.677 26.7483 132.087 26.8432 131.466 26.8432C130.615 26.8432 129.96 26.685 129.24 26.4003C128.553 26.1155 127.898 25.6729 127.342 25.1031C126.818 24.5655 126.393 23.9327 126.098 23.2047C125.804 22.4767 125.641 21.7493 125.641 20.99C125.641 19.3448 126.23 17.921 127.375 16.782C128.619 15.5481 130.157 15.0735 131.564 15.0735C132.153 15.0735 132.709 15.1684 133.266 15.3266C133.822 15.5164 134.509 15.8961 134.869 16.4656V15.3266H137.454V26.622H134.902V26.6537H134.902ZM129.24 18.269C128.553 18.9651 128.226 19.9459 128.226 21.0216C128.226 22.0344 128.553 22.9513 129.24 23.6477C129.862 24.2488 130.648 24.6285 131.629 24.6285C132.611 24.6285 133.429 24.375 134.117 23.6793C134.804 22.9836 135.033 21.9708 135.033 20.8951C135.033 19.9143 134.771 18.9018 134.084 18.2057C133.397 17.5413 132.579 17.2566 131.663 17.2566C130.648 17.2885 129.83 17.6679 129.24 18.269ZM97.9546 16.9402V26.4003H94.4202L91.9985 18.6171H91.933L92.0639 26.4003H89.6422V16.9402H93.3075L95.5983 24.439H95.6311L95.5002 16.9402H97.9546ZM47.0986 26.4955L48.9313 16.9402H53.3166L55.1492 26.4955H52.4984L51.1567 17.7944H51.1239L49.7494 26.4955H47.0986ZM67.9123 16.9402L68.1414 26.4955H65.6542L65.5887 17.8894H65.5233L63.887 26.4955H61.3671L59.7308 17.8894H59.6654L59.5999 26.4955H57.1128L57.3418 16.9402H61.3998L62.6107 24.2491H62.6434L63.887 16.9402H67.9123ZM83.3916 25.0401C84.0792 25.0401 84.3079 24.5971 84.3406 24.3437C84.3734 24.2491 84.3734 24.0909 84.3734 23.9644V16.9405H86.8933V23.8062C86.8933 23.996 86.8605 24.3437 86.8605 24.439C86.6969 26.2107 85.2242 26.8119 83.3913 26.8119C81.5586 26.8119 80.1187 26.2421 79.9551 24.439C79.9551 24.3437 79.9223 23.996 79.9223 23.8062V16.9405H82.4422V24.0273C82.4422 24.1539 82.4422 24.2808 82.4749 24.4073C82.508 24.5971 82.7044 25.0401 83.3916 25.0401ZM42.9097 23.7745C43.0079 23.9957 42.9752 24.3121 42.9425 24.4703C42.8443 24.7867 42.6479 25.1031 41.9607 25.1031C41.3389 25.1031 40.9789 24.755 40.9789 24.2491V23.3316H38.3281V24.059C38.3281 26.2107 40.0626 26.8435 41.928 26.8435C43.7279 26.8435 45.2005 26.2424 45.4296 24.6604C45.5605 23.8378 45.4624 23.3003 45.4296 23.0785C45.0042 21.0855 41.2407 20.4841 40.9789 19.3454C40.9462 19.1556 40.9462 18.9657 40.9789 18.8392C41.0444 18.5228 41.2734 18.2064 41.8952 18.2064C42.4843 18.2064 42.8116 18.5544 42.8116 19.0606V19.6618H45.266V18.9974C45.266 16.9092 43.3352 16.5928 41.928 16.5928C40.1608 16.5928 38.7208 17.1623 38.459 18.7126C38.3936 19.1239 38.3936 19.5036 38.4918 20.0098C38.8845 22.0024 42.4189 22.5406 42.9097 23.7745ZM75.0792 23.7745C75.1774 23.9957 75.1447 24.2808 75.112 24.4703C75.0465 24.7867 74.8174 25.1031 74.1629 25.1031C73.5411 25.1031 73.1811 24.755 73.1811 24.2491V23.3316H70.5631V24.059C70.5631 26.1791 72.2975 26.8119 74.1302 26.8119C75.8974 26.8119 77.37 26.2421 77.5991 24.6601C77.73 23.8375 77.6322 23.2999 77.5991 23.1098C77.1737 21.1169 73.4757 20.5474 73.2142 19.44C73.1487 19.2502 73.1815 19.0603 73.2142 18.9338C73.2796 18.6174 73.5087 18.301 74.0978 18.301C74.6869 18.301 75.0141 18.649 75.0141 19.1552V19.7564H77.4685V19.092C77.4685 17.0354 75.5377 16.719 74.1632 16.719C72.4288 16.719 70.9888 17.2569 70.727 18.8072C70.6616 19.2185 70.6288 19.5982 70.7598 20.0728C71.1194 22.0024 74.5883 22.5406 75.0792 23.7745ZM104.042 24.9449C104.761 24.9449 104.99 24.5019 105.056 24.2491C105.089 24.1539 105.089 23.9957 105.089 23.9005V22.509H104.074V21.1165H107.576V23.6793C107.576 23.8691 107.576 23.9957 107.543 24.3121C107.379 26.0522 105.808 26.685 104.042 26.685C102.307 26.685 100.736 26.0522 100.572 24.3121C100.54 23.9957 100.54 23.8691 100.54 23.6793V19.6611C100.54 19.5029 100.572 19.1866 100.572 19.0284C100.801 17.2249 102.274 16.6554 104.042 16.6554C105.808 16.6554 107.347 17.2249 107.511 19.0284C107.543 19.3131 107.543 19.6611 107.543 19.6611V19.9775H105.056V19.4397C105.056 19.4397 105.056 19.2182 105.023 19.06C104.99 18.8385 104.794 18.3639 104.042 18.3639C103.322 18.3639 103.125 18.8385 103.06 19.06C103.027 19.1866 103.027 19.3448 103.027 19.5029V23.8688C103.027 23.9954 103.027 24.1222 103.06 24.2168C103.06 24.5336 103.322 24.9449 104.042 24.9449Z" fill="white"/>
        <path d="M27.365 17.2567C27.0377 14.7888 26.1214 12.5424 24.5178 10.8972C22.8161 9.34689 20.4926 8.461 17.94 8.14461C15.4855 7.82822 13.8165 7.92314 13.8165 7.92314C13.8165 7.92314 12.1475 7.85986 9.69304 8.14461C7.14043 8.461 4.81689 9.34689 3.11515 10.8972C1.51158 12.5424 0.595262 14.7888 0.268003 17.2567C-0.059255 19.6296 0.00619661 21.2432 0.00619661 21.2432C0.00619661 21.2432 -0.059255 22.8568 0.235277 25.2297C0.562536 27.6972 1.47886 29.9439 3.08242 31.5891C4.78417 33.1394 7.1077 34.025 9.66032 34.3414C12.1148 34.6578 13.7838 34.5632 13.7838 34.5632C13.7838 34.5632 15.4528 34.6262 17.9072 34.3414C20.4598 34.025 22.7834 33.1394 24.4851 31.5891C26.0887 29.9442 27.005 27.6972 27.3323 25.2297C27.6595 22.8568 27.5613 21.2432 27.5613 21.2432C27.5613 21.2432 27.6922 19.6296 27.365 17.2567Z" fill="#1E4BC6"/>
        <path d="M5.0791 17.3516H7.56626C7.95897 17.3516 8.28623 17.4148 8.61349 17.5414C8.94075 17.668 9.20256 17.8578 9.43164 18.0793C9.66072 18.3007 9.85707 18.5538 9.98798 18.8702C10.1189 19.1866 10.1843 19.503 10.1843 19.851C10.1843 20.1991 10.1189 20.5155 9.98798 20.8319C9.85707 21.1482 9.66072 21.4017 9.43164 21.6228C9.20256 21.844 8.90802 22.0345 8.61349 22.1604C8.31896 22.2869 7.95897 22.3508 7.56626 22.3508H6.45359V24.3438H5.11183V17.3516H5.0791ZM6.42086 18.5542V21.1169H7.46809C7.66444 21.1169 7.8608 21.0853 8.02443 21.022C8.18806 20.9587 8.31896 20.8638 8.44986 20.7373C8.58077 20.6107 8.64622 20.4841 8.71167 20.3259C8.77712 20.1678 8.80985 20.0096 8.80985 19.8197C8.80985 19.6299 8.77712 19.4717 8.71167 19.3135C8.64622 19.1553 8.54804 19.0287 8.44986 18.9022C8.31896 18.7756 8.18806 18.6807 8.02443 18.6174C7.8608 18.5542 7.66444 18.5225 7.46809 18.5225H6.42086V18.5542ZM13.2933 24.3438C12.9333 24.3438 12.606 24.2808 12.2461 24.1539C11.9188 24.0274 11.5915 23.8376 11.3297 23.6164C11.0679 23.363 10.8388 23.0782 10.6752 22.7302C10.5116 22.3822 10.4134 21.9709 10.4134 21.5279C10.4134 21.085 10.4789 20.6737 10.6425 20.3256C10.8061 19.9776 11.0352 19.6928 11.297 19.4397C11.5588 19.1866 11.8861 19.0284 12.2133 18.9019C12.5733 18.7753 12.9006 18.712 13.2933 18.712C13.686 18.712 14.046 18.7753 14.3405 18.9019C14.6678 19.0284 14.9296 19.2183 15.1587 19.4397V18.712H16.5004V24.3435H15.1587V23.5525C14.9623 23.8059 14.6678 23.9954 14.3405 24.1536C14.0133 24.2808 13.686 24.3438 13.2933 24.3438ZM13.5224 23.1735C13.7842 23.1735 14.0133 23.1418 14.2096 23.0469C14.406 22.952 14.6023 22.8571 14.7659 22.6989C14.9296 22.5407 15.0278 22.3825 15.1259 22.1926C15.2241 22.0022 15.2568 21.781 15.2568 21.5599C15.2568 21.3381 15.2241 21.1166 15.1259 20.9271C15.0278 20.7373 14.9296 20.5474 14.7659 20.4209C14.6023 20.2627 14.4387 20.1678 14.2096 20.0728C13.9805 19.9463 13.7514 19.9146 13.5224 19.9146C13.2933 19.9146 13.0642 19.9463 12.8351 20.0412C12.606 20.1361 12.4424 20.231 12.2788 20.3892C12.1152 20.5474 11.9843 20.7056 11.9188 20.8954C11.8206 21.0853 11.7879 21.3068 11.7879 21.5282C11.7879 21.7497 11.8206 21.9709 11.9188 22.1607C12.017 22.3512 12.1479 22.5407 12.2788 22.6989C12.4424 22.8571 12.6388 22.9517 12.8351 23.0469C13.0315 23.1099 13.2606 23.1735 13.5224 23.1735ZM18.3658 18.7437L20.0021 22.572L21.5075 18.7437H22.9147L19.4785 26.9065H18.104L19.3148 24.091L16.9586 18.7437H18.3658Z" fill="white"/>
    </g>
    <defs>
        <clipPath id="clip0">
            <rect width="108" height="40" fill="white"/>
        </clipPath>
    </defs>
</svg>
