<svg width="98" height="21" viewBox="0 0 98 21" fill="none" xmlns="http://www.w3.org/2000/svg">
    <g clip-path="url(#clip0)">
        <path d="M20.1415 13.0584C18.7666 18.6693 13.2351 22.1146 7.73561 20.7037C2.26808 19.2927 -1.08918 13.6162 0.285699 7.97242C1.66058 2.36148 7.19206 -1.08383 12.6916 0.327106C18.1911 1.70523 21.5164 7.4146 20.1415 13.0584Z" fill="#F7931A"/>
        <path d="M14.7377 9.02185C14.9295 7.61091 13.9063 6.88904 12.4995 6.36404L12.9471 4.46092L11.828 4.1656L11.3804 6.0031C11.0926 5.93747 10.7729 5.87185 10.4851 5.77342L10.9327 3.9031L9.81366 3.60779L9.36603 5.51091C9.11024 5.44528 8.88643 5.41247 8.66261 5.34685L7.12786 4.9531L6.84009 6.19997C6.84009 6.19997 7.67142 6.39685 7.63944 6.39685C8.08708 6.5281 8.183 6.82341 8.15103 7.0531L7.63944 9.21873C7.67142 9.21873 7.70339 9.25154 7.76734 9.25154C7.73536 9.25154 7.70339 9.21873 7.63944 9.21873L6.90405 12.2375C6.8401 12.3687 6.7122 12.5984 6.39246 12.5C6.39246 12.5328 5.56114 12.3031 5.56114 12.3031L5.01758 13.6156L6.48838 13.9765C6.77614 14.0422 7.03194 14.1078 7.28773 14.1734L6.80812 16.0765L7.92721 16.3718L8.37484 14.4687C8.69458 14.5672 8.98235 14.6328 9.27011 14.6984L8.82248 16.5687L9.94157 16.864L10.4212 14.9609C12.3396 15.3219 13.7784 15.1906 14.3859 13.4187C14.8655 11.975 14.354 11.1547 13.3628 10.6297C14.0342 10.5312 14.5778 10.039 14.7377 9.02185ZM12.1797 12.6969C11.828 14.1406 9.49393 13.3531 8.72655 13.1562L9.33405 10.6297C10.1014 10.8265 12.5315 11.2203 12.1797 12.6969ZM12.5314 8.98904C12.2117 10.3015 10.2613 9.64529 9.62183 9.48122L10.1654 7.18435C10.8049 7.3156 12.8512 7.61091 12.5314 8.98904Z" fill="white"/>
        <path d="M29.99 6.36404C30.8213 6.36404 31.5248 6.5281 32.1323 6.82341C32.7398 7.11872 33.2514 7.54529 33.635 8.03748C34.0187 8.56248 34.3385 9.1531 34.5303 9.84216C34.7222 10.5312 34.8181 11.2859 34.8181 12.0734C34.8181 13.2875 34.5943 14.4687 34.1466 15.5515C33.699 16.6343 33.0915 17.5859 32.3561 18.4062C31.5887 19.2265 30.6934 19.85 29.6703 20.3093C28.6471 20.7687 27.528 20.9984 26.313 20.9984C26.1531 20.9984 25.8974 20.9984 25.4817 20.9984C25.066 20.9984 24.6504 20.9656 24.1388 20.8672C23.6272 20.8015 23.1156 20.7031 22.5401 20.539C21.9646 20.4078 21.453 20.2109 20.9414 19.9484L25.4178 0.621849L29.4145 -0.00158691L27.8158 6.85622C28.1675 6.69216 28.5192 6.56091 28.839 6.49528C29.2226 6.39685 29.5744 6.36404 29.99 6.36404ZM26.6328 17.7172C27.2403 17.7172 27.8158 17.5531 28.3274 17.2578C28.8709 16.9625 29.3186 16.5687 29.7023 16.0437C30.0859 15.5515 30.4057 14.9609 30.6295 14.3375C30.8533 13.714 30.9812 13.025 30.9812 12.3359C30.9812 11.4828 30.8533 10.8265 30.5656 10.3344C30.2778 9.84216 29.7662 9.61247 29.0308 9.61247C28.775 9.61247 28.4872 9.64529 28.0716 9.74373C27.6879 9.84217 27.3362 10.0062 27.0164 10.3015L25.3218 17.5859C25.4177 17.6187 25.5137 17.6187 25.6096 17.6515C25.6735 17.6843 25.7695 17.6843 25.8654 17.6843C25.9613 17.6843 26.0572 17.6843 26.1851 17.6843C26.313 17.6843 26.4409 17.7172 26.6328 17.7172Z" fill="white"/>
        <path d="M38.9736 20.6375H35.1367L38.3661 6.65932H42.2349L38.9736 20.6375ZM40.8281 4.95308C40.2845 4.95308 39.8049 4.78902 39.3892 4.46089C38.9416 4.13277 38.7498 3.64058 38.7498 2.95152C38.7498 2.59058 38.8137 2.22964 38.9736 1.90151C39.1335 1.57339 39.3253 1.27808 39.5491 1.04839C39.8049 0.818707 40.0607 0.621828 40.3804 0.490578C40.7002 0.359328 41.0519 0.293701 41.4036 0.293701C41.9472 0.293701 42.4268 0.457764 42.8424 0.785889C43.2581 1.11401 43.4819 1.6062 43.4819 2.29527C43.4819 2.6562 43.418 3.01714 43.2581 3.34527C43.0982 3.67339 42.9064 3.9687 42.6826 4.19839C42.4268 4.42807 42.171 4.62495 41.8512 4.7562C41.5315 4.88745 41.1798 4.95308 40.8281 4.95308Z" fill="white"/>
        <path d="M45.593 3.18118L49.6217 2.55774L48.6305 6.69212H52.915L52.1476 9.94055H47.8631L46.7121 14.8296C46.6161 15.2234 46.5522 15.6171 46.5202 15.9781C46.4882 16.339 46.5522 16.6343 46.6481 16.8968C46.744 17.1593 46.9359 17.3562 47.1917 17.4874C47.4475 17.6187 47.8311 17.7171 48.3427 17.7171C48.7584 17.7171 49.1741 17.6843 49.5577 17.5859C49.9414 17.5202 50.3251 17.389 50.7408 17.2577L51.0285 20.2765C50.517 20.4734 49.9414 20.6374 49.3339 20.7687C48.7264 20.8999 48.023 20.9656 47.1917 20.9656C46.0086 20.9656 45.0814 20.7687 44.4099 20.4077C43.7385 20.0468 43.2909 19.5546 43.0031 18.9312C42.7153 18.3077 42.6194 17.5859 42.6514 16.7656C42.6834 15.9452 42.8113 15.0921 43.0031 14.1734L45.593 3.18118Z" fill="white"/>
        <path d="M52.7549 15.0594C52.7549 13.8453 52.9467 12.7297 53.3304 11.6469C53.7141 10.5969 54.2577 9.64533 54.9611 8.85783C55.6645 8.07033 56.5278 7.44689 57.551 6.98752C58.5422 6.52814 59.6932 6.29846 60.9402 6.29846C61.7076 6.29846 62.411 6.36408 63.0185 6.52814C63.626 6.69221 64.2015 6.88909 64.6811 7.11877L63.3702 10.2031C63.0185 10.0719 62.6668 9.94064 62.2831 9.80939C61.8994 9.67814 61.4518 9.64533 60.9082 9.64533C59.6293 9.64533 58.6061 10.1047 57.8707 10.9906C57.1353 11.9094 56.7516 13.1235 56.7516 14.6328C56.7516 15.5516 56.9435 16.2735 57.3271 16.8313C57.7108 17.3891 58.4143 17.6516 59.4374 17.6516C59.949 17.6516 60.4286 17.586 60.8762 17.4875C61.3559 17.3891 61.7715 17.2578 62.1232 17.0938L62.411 20.2438C61.9314 20.4407 61.3878 20.6047 60.8123 20.7688C60.2368 20.9 59.5333 20.9985 58.702 20.9985C57.6469 20.9985 56.7196 20.8344 55.9842 20.5063C55.2488 20.1781 54.6413 19.7516 54.1617 19.2266C53.6821 18.6688 53.3304 18.0453 53.1066 17.3235C52.8508 16.6016 52.7549 15.8469 52.7549 15.0594Z" fill="white"/>
        <path d="M69.7652 20.9985C68.8379 20.9985 68.0706 20.8672 67.3671 20.5719C66.6957 20.2766 66.1521 19.8828 65.7045 19.3906C65.2569 18.8656 64.9371 18.275 64.7133 17.586C64.4895 16.8969 64.3936 16.1094 64.3936 15.2563C64.3936 14.2063 64.5534 13.1235 64.9051 12.0735C65.2249 11.0235 65.7365 10.0391 66.4079 9.21877C67.0474 8.36565 67.8787 7.67659 68.806 7.11877C69.7652 6.59377 70.8523 6.29846 72.0673 6.29846C72.9626 6.29846 73.7619 6.42971 74.4334 6.72502C75.1048 7.02033 75.6804 7.41409 76.128 7.90627C76.5756 8.43127 76.8954 9.0219 77.1192 9.71096C77.343 10.4 77.4709 11.1875 77.4709 12.0406C77.4709 13.0907 77.311 14.1735 76.9913 15.2235C76.6715 16.2735 76.1919 17.225 75.5525 18.0781C74.913 18.9313 74.1136 19.6203 73.1544 20.1781C72.1313 20.736 71.0441 20.9985 69.7652 20.9985ZM71.6836 9.61252C71.1081 9.61252 70.6285 9.77658 70.1808 10.1047C69.7332 10.4328 69.3815 10.8594 69.0937 11.3844C68.806 11.9094 68.5821 12.4672 68.4223 13.0578C68.2624 13.6813 68.1984 14.2391 68.1984 14.7969C68.1984 15.6828 68.3264 16.3719 68.6141 16.8641C68.9019 17.3563 69.3815 17.6188 70.1169 17.6188C70.6924 17.6188 71.172 17.4547 71.6197 17.1266C72.0353 16.7985 72.419 16.3719 72.7068 15.8469C72.9945 15.3219 73.2183 14.7641 73.3782 14.1735C73.5381 13.55 73.602 12.9922 73.602 12.4344C73.602 11.5485 73.4741 10.8594 73.1864 10.3672C72.8986 9.87502 72.419 9.61252 71.6836 9.61252Z" fill="white"/>
        <path d="M81.5957 20.6375H77.7588L80.9882 6.65932H84.857L81.5957 20.6375ZM83.4821 4.95308C82.9386 4.95308 82.459 4.78902 82.0433 4.46089C81.6276 4.13277 81.4038 3.64058 81.4038 2.95152C81.4038 2.59058 81.4678 2.22964 81.6276 1.90151C81.7875 1.57339 81.9794 1.27808 82.2032 1.04839C82.459 0.818707 82.7147 0.621828 83.0345 0.490578C83.3542 0.359328 83.7059 0.293701 84.0577 0.293701C84.6012 0.293701 85.0808 0.457764 85.4965 0.785889C85.9121 1.11401 86.136 1.6062 86.136 2.29527C86.136 2.6562 86.072 3.01714 85.9121 3.34527C85.7523 3.67339 85.5604 3.9687 85.3366 4.19839C85.0808 4.42807 84.825 4.62495 84.5053 4.7562C84.1856 4.88745 83.8338 4.95308 83.4821 4.95308Z" fill="white"/>
        <path d="M87.6381 7.28275C87.9258 7.18431 88.2456 7.08586 88.5973 6.98743C88.949 6.88899 89.3327 6.75774 89.7803 6.6593C90.228 6.56086 90.7076 6.49525 91.2511 6.42962C91.7947 6.364 92.4022 6.33118 93.1056 6.33118C95.12 6.33118 96.5268 6.9218 97.2942 8.13586C98.0616 9.34993 98.1895 10.9906 97.7099 13.0906L95.9513 20.6374H92.0824L93.7771 13.2546C93.873 12.7952 93.9689 12.3359 94.0329 11.9093C94.0968 11.4827 94.0968 11.089 94.0329 10.7609C93.9689 10.4327 93.809 10.1702 93.5533 9.97337C93.2975 9.77649 92.9138 9.67806 92.4022 9.67806C91.8906 9.67806 91.379 9.74368 90.8674 9.84212L88.3415 20.6702H84.4727L87.6381 7.28275Z" fill="white"/>
    </g>
    <defs>
        <clipPath id="clip0">
            <rect width="98" height="21" fill="white"/>
        </clipPath>
    </defs>
</svg>
