<svg width="98" height="18" viewBox="0 0 98 18" fill="none" xmlns="http://www.w3.org/2000/svg">
    <g clip-path="url(#clip0)">
        <path d="M15.1831 5.70002L10.7356 5.66252L11.5024 4.91252C11.8858 4.53752 11.8858 3.90002 11.5024 3.52502C11.119 3.15002 10.4672 3.15002 10.0838 3.52502L7.62994 5.92502C7.24652 6.30002 7.24652 6.93752 7.62994 7.31252C7.82164 7.50002 8.09003 7.61252 8.35842 7.61252C8.35842 7.61252 8.35842 7.61252 8.39676 7.61252C8.4351 7.61252 8.4351 7.61252 8.47344 7.61252L15.2215 7.65002C17.5603 7.68752 19.5157 9.56252 19.5157 11.8125C19.5157 12.9375 19.0556 13.9875 18.2504 14.775C17.4069 15.6 16.3334 16.05 15.1831 16.05H4.21757C3.6808 16.05 3.2207 16.5 3.2207 17.025C3.2207 17.55 3.6808 18 4.21757 18H15.0681C16.7551 18 18.3655 17.3625 19.5924 16.1625C20.8193 15 21.4711 13.425 21.4711 11.8125C21.4711 8.47502 18.6338 5.73752 15.1831 5.70002Z" fill="#F5F8FF"/>
        <path d="M10.7739 12.3375L10.0454 13.05C9.66197 13.425 9.66197 14.0625 10.0454 14.4375C10.2371 14.625 10.5055 14.7375 10.7739 14.7375C11.0423 14.7375 11.2723 14.625 11.5023 14.4375L13.9562 12.0375C14.3396 11.6625 14.3396 11.025 13.9562 10.65C13.7261 10.425 13.4194 10.35 13.1127 10.3875C13.0743 10.3875 13.0743 10.3875 13.036 10.3875L6.28795 10.35C3.94914 10.3125 1.99374 8.4375 1.99374 6.1875C1.99374 5.0625 2.45383 4.0125 3.259 3.225C4.1025 2.4 5.17606 1.95 6.32629 1.95H17.1768C17.7136 1.95 18.1737 1.5 18.1737 0.975C18.1737 0.45 17.7136 0 17.1768 0H6.36463C4.67762 0 3.06729 0.6375 1.84038 1.8375C0.6518 3 0 4.5375 0 6.1875C0 9.525 2.83725 12.2625 6.28795 12.3L10.7739 12.3375Z" fill="#F5F8FF"/>
        <path d="M33.2419 14.8125C36.4242 14.8125 37.8045 13.1625 37.8045 11.25C37.8045 6.93755 30.9414 8.28755 30.9414 6.15005C30.9414 5.28755 31.7082 4.72505 32.9351 4.72505C34.1621 4.72505 35.4273 5.13755 36.3475 6.03755L37.5361 4.53755C36.4242 3.48755 34.9672 2.92505 33.1268 2.92505C30.558 2.92505 28.8326 4.38755 28.8326 6.30005C28.8326 10.5375 35.6957 9.03755 35.6957 11.475C35.6957 12.225 35.0439 13.05 33.3185 13.05C31.6699 13.05 30.4046 12.3 29.5995 11.475L28.4492 13.0126C29.5228 14.1 31.0948 14.8125 33.2419 14.8125Z" fill="#F5F8FF"/>
        <path d="M49.307 14.625L44.1693 8.55005L48.9619 3.11255H46.393L41.7921 8.58755V3.11255H39.7217V14.625H41.7921V10.95L42.8273 9.78755L46.7381 14.625H49.307Z" fill="#F5F8FF"/>
        <path d="M52.7189 14.625V3.11255H50.6484V14.625H52.7189Z" fill="#F5F8FF"/>
        <path d="M65.4104 14.625V3.11255H63.34V11.1L57.3588 3.11255H55.25V14.625H57.3204V6.41255L63.455 14.625H65.4104Z" fill="#F5F8FF"/>
        <path d="M70.0109 14.625V10.3125H73.1165C75.5703 10.3125 76.9506 8.66255 76.9506 6.71255C76.9506 4.76255 75.5703 3.11255 73.1165 3.11255H67.9404V14.625H70.0109ZM72.8098 8.55005H69.9725V4.87505H72.8098C73.96 4.87505 74.8035 5.58755 74.8035 6.71255C74.8035 7.83755 73.9983 8.55005 72.8098 8.55005Z" fill="#997FF9"/>
        <path d="M87.9165 14.625L83.2772 3.11255H80.7084L76.1074 14.625H78.4462L79.3281 12.4125H84.7342L85.616 14.625H87.9165ZM84.1207 10.65H79.9032L82.012 5.17505L84.1207 10.65Z" fill="#997FF9"/>
        <path d="M93.438 14.625V9.86252L98.0006 3.15002H95.6234L92.4028 8.10002L89.1438 3.15002H86.7666L91.3292 9.86252V14.625H93.438Z" fill="#997FF9"/>
    </g>
    <defs>
        <clipPath id="clip0">
            <rect width="98" height="18" fill="white"/>
        </clipPath>
    </defs>
</svg>
