<svg width="84" height="32" viewBox="0 0 84 32" fill="none" xmlns="http://www.w3.org/2000/svg">
    <path d="M55.8201 6.74931V21.6984C55.8201 21.9352 55.6496 22.1129 55.4224 22.1129H52.4964C52.2692 22.1129 52.0987 21.9352 52.0987 21.6984V6.74931C52.0987 6.51249 52.2692 6.33487 52.4964 6.33487H55.4224C55.6496 6.33487 55.8201 6.51249 55.8201 6.74931ZM78.6594 6.33487H75.3926C75.2222 6.33487 75.0801 6.45328 75.0233 6.6309L72.4383 15.482L69.5976 6.6309C69.5407 6.45328 69.3987 6.36448 69.2283 6.36448H66.9273C66.7569 6.36448 66.6148 6.48289 66.558 6.6309L63.7173 15.482L61.0754 6.6309C61.0186 6.45328 60.8766 6.33487 60.7061 6.33487H57.4393C57.3257 6.33487 57.1836 6.39408 57.1268 6.51249C57.0416 6.6309 57.0416 6.74931 57.07 6.86771L61.8992 21.8464C61.956 22.0241 62.0981 22.1129 62.2685 22.1129H64.882C65.0524 22.1129 65.1945 21.9944 65.2513 21.8464L68.0636 13.1138L70.8759 21.8464C70.9327 22.0241 71.0747 22.1129 71.2452 22.1129H73.8586C74.0291 22.1129 74.1711 21.9944 74.2279 21.8464L79.0571 6.86771C79.0856 6.74931 79.0856 6.60129 79.0003 6.51249C78.9151 6.39408 78.8015 6.33487 78.6594 6.33487ZM83.6023 6.33487H80.6764C80.4491 6.33487 80.2787 6.51249 80.2787 6.74931V21.6984C80.2787 21.9352 80.4491 22.1129 80.6764 22.1129H83.6023C83.8296 22.1129 84 21.9352 84 21.6984V6.74931C84 6.51249 83.8011 6.33487 83.6023 6.33487ZM50.4227 21.6096C50.5932 21.8168 50.4511 22.1129 50.1955 22.1129H46.5878C46.4457 22.1129 46.3037 22.0537 46.2185 21.9352L45.6219 21.1656C44.372 21.9944 42.8948 22.4977 41.3324 22.4977C36.9577 22.4977 33.4068 18.7974 33.4068 14.2387C33.4068 9.67992 36.9577 5.97965 41.3324 5.97965C45.7071 5.97965 49.258 9.67992 49.258 14.2387C49.258 15.8668 48.8035 17.4061 48.0081 18.7086L50.4227 21.6096ZM43.2925 18.2646L41.7301 16.2812C41.5597 16.074 41.7017 15.7484 41.9574 15.7484H45.2526C45.4231 15.2747 45.5083 14.7419 45.5083 14.2091C45.5083 11.7521 43.747 9.62072 41.3324 9.62072C38.9178 9.62072 37.1566 11.7521 37.1566 14.2091C37.1566 16.666 38.9178 18.7678 41.3324 18.7678C42.0426 18.7974 42.696 18.5902 43.2925 18.2646ZM24.3734 21.5208C24.4586 22.1425 24.2597 22.4089 24.0893 22.4089C23.8904 22.4089 23.6348 22.1425 23.3223 21.6688C23.0098 21.1656 22.8962 20.6031 23.0666 20.3367C23.1518 20.1591 23.3791 20.0703 23.6348 20.1591C24.1177 20.3367 24.3165 21.136 24.3734 21.5208ZM21.561 22.8825C22.1576 23.4154 22.3564 24.0666 22.044 24.5106C21.8735 24.7475 21.5894 24.8955 21.2202 24.8955C20.8793 24.8955 20.5384 24.7771 20.2827 24.5402C19.743 24.037 19.5725 23.2081 19.9418 22.7641C20.0839 22.5865 20.3111 22.4977 20.5952 22.4977C20.9077 22.4681 21.2486 22.6161 21.561 22.8825ZM20.5384 28.0333C23.1518 28.0333 25.9926 28.9806 29.1458 31.8816C29.4582 32.1776 29.8843 31.8224 29.6003 31.4376C26.5039 27.382 23.6632 26.6124 20.8225 25.9611C17.3284 25.1619 15.5387 23.1193 14.2888 20.8696C14.0331 20.4255 13.9195 20.5143 13.9195 21.0768C13.8911 21.7872 13.9479 22.7049 14.09 23.6226C13.9479 23.6226 13.8059 23.6226 13.6638 23.6226C8.69259 23.6226 4.63037 19.4191 4.63037 14.2091C4.63037 8.99907 8.66419 4.79556 13.6638 4.79556C18.6351 4.79556 22.6973 8.99907 22.6973 14.2091C22.6973 14.5643 22.6689 14.9491 22.6405 15.3043C21.9871 15.1859 20.6804 15.1563 19.7714 15.2451C19.4305 15.2747 19.4873 15.4524 19.743 15.482C22.7257 16.0444 24.7711 17.9685 25.254 21.4616C25.254 21.5504 25.3676 21.58 25.396 21.4912C26.6175 19.3598 27.3277 16.8733 27.3277 14.1795C27.2993 6.36448 21.1917 0 13.6638 0C6.10754 0 0 6.36448 0 14.2387C0 22.1129 6.10754 28.4773 13.6638 28.4773C15.6523 28.4477 17.6409 28.0333 20.5384 28.0333Z" fill="#FF8C00"/>
</svg>
