<svg width="91" height="19" viewBox="0 0 91 19" fill="none" xmlns="http://www.w3.org/2000/svg">
    <g clip-path="url(#clip0)">
        <path d="M17.2971 -3.74715e-05C11.9922 -3.74715e-05 7.7738 4.27144 7.7738 9.49996C7.7738 14.7918 12.0557 19 17.2971 19C22.5454 19 26.8203 14.7285 26.8203 9.49996C26.8231 8.25162 26.5787 7.01503 26.1011 5.86118C25.6235 4.70733 24.9221 3.65895 24.0372 2.77624C23.1524 1.89353 22.1014 1.19387 20.9447 0.717438C19.7881 0.241004 18.5485 -0.00282085 17.2971 -3.74715e-05ZM17.2971 13.0466C16.3575 13.0357 15.4596 12.6585 14.7952 11.9957C14.1308 11.3329 13.7527 10.4372 13.7417 9.49996C13.7527 8.56273 14.1308 7.66698 14.7952 7.00421C15.4596 6.34144 16.3575 5.96426 17.2971 5.95329C18.2366 5.96426 19.1345 6.34144 19.7989 7.00421C20.4633 7.66698 20.8414 8.56273 20.8524 9.49996C20.8505 10.44 20.4754 11.3411 19.809 12.0058C19.1427 12.6705 18.2394 13.0448 17.2971 13.0466ZM7.7738 2.76552V16.5933H4.33837L0 2.76552H7.7738Z" fill="#8B3FFD"/>
        <path d="M88.1215 5.22854L86.0052 10.4008C85.9488 10.4641 85.9488 10.5837 85.9488 10.64L85.8924 10.7667L85.8289 10.64C85.8289 10.5837 85.7654 10.4641 85.7654 10.4008L83.6562 5.22854H80.9473L84.5027 14.0741L82.9931 17.4448H85.7089L90.7175 5.23558H88.1215V5.22854ZM68.1086 5.7141C67.582 5.32654 66.9555 5.09705 66.3027 5.05262C65.7316 4.99016 65.1538 5.05498 64.611 5.24239C64.0681 5.4298 63.5737 5.73512 63.1635 6.13632V5.17225H60.6945V14.0037H63.1635V9.37336C63.1635 8.35299 63.3469 8.05039 63.5303 7.81114C63.8266 7.33262 64.3769 7.08632 65.0329 7.08632C65.696 7.08632 66.3027 7.38891 66.5989 7.86743C66.7824 8.23336 66.8458 8.71188 66.8458 8.95113V14.0037H69.3148V8.65558C69.3148 7.26928 68.8916 6.30521 68.1086 5.70002V5.7141ZM55.9964 5.29188C54.7731 4.87001 53.4337 4.93556 52.2576 5.47484C51.4466 5.8349 50.7719 6.44384 50.3318 7.21299C49.9086 7.87447 49.7251 8.71891 49.7251 9.61965C49.6919 10.4373 49.8891 11.2479 50.2943 11.9594C50.6996 12.6709 51.2967 13.2548 52.0178 13.6448C52.7373 14.0108 53.5838 14.25 54.3669 14.25C54.7901 14.25 55.2134 14.1867 55.6366 14.0671C55.9893 13.9474 56.3562 13.8278 56.7159 13.6448C57.4371 13.2548 58.0341 12.6709 58.4394 11.9594C58.8446 11.2479 59.0418 10.4373 59.0086 9.61965C59.0539 8.66815 58.7833 7.7283 58.2387 6.94583C57.6941 6.16336 56.9059 5.58199 55.9964 5.29188ZM56.7159 9.73928C56.6595 10.5204 56.4126 11.1819 55.94 11.6041C55.5731 11.9067 55.0229 12.0826 54.3669 12.1459C53.7948 12.17 53.2351 11.9763 52.8008 11.6041C52.3141 11.1819 52.0742 10.5204 52.0178 9.73928C51.9864 9.42049 52.022 9.09867 52.1224 8.7944C52.2229 8.49014 52.3859 8.21015 52.601 7.97235C52.8161 7.73455 53.0787 7.54417 53.3718 7.41341C53.665 7.28265 53.9823 7.21439 54.3034 7.21299C54.8465 7.21299 55.2698 7.39595 55.6931 7.63521C56.4126 8.05743 56.7794 8.83854 56.7159 9.74632V9.73928ZM46.8893 5.7141C46.3626 5.32689 45.7362 5.09743 45.0834 5.05262H44.6602C43.7008 5.05262 42.8543 5.47484 42.1277 6.31928L42.0078 6.49521H41.7679C41.5958 6.21323 41.3706 5.96711 41.1048 5.77039C40.5783 5.38284 39.9518 5.15334 39.2989 5.10891C38.7731 5.03879 38.2381 5.10124 37.7427 5.29055C37.2473 5.47986 36.8074 5.78999 36.4631 6.19262V5.29188H33.9941V14.1304H36.4631V9.38039C36.4631 8.41632 36.5831 8.17706 36.7665 7.87447C36.9159 7.63165 37.1306 7.43561 37.3863 7.3087C37.642 7.18179 37.9283 7.12911 38.2126 7.15669C38.8122 7.15669 39.3554 7.45225 39.6587 7.93076C39.8986 8.29669 39.8986 8.71891 39.8986 9.14113V14.0671H42.3676V9.31706C42.3676 8.41632 42.4945 8.12076 42.6709 7.81817C42.8288 7.58317 43.0449 7.39292 43.2983 7.26591C43.5517 7.1389 43.8338 7.07946 44.117 7.09336C44.7237 7.09336 45.2034 7.39595 45.5067 7.87447C45.6831 8.17706 45.7465 8.53595 45.7465 8.78225V14.0108H48.2155V8.59225C48.2155 8.11373 48.1591 7.63521 48.0392 7.21299C47.8175 6.60838 47.4164 6.08552 46.8893 5.7141ZM78.5982 11.3648C77.9703 11.9946 77.1369 12.379 76.2492 12.4485C75.8416 12.4928 75.4294 12.4456 75.0425 12.3104C74.6556 12.1753 74.3038 11.9556 74.013 11.6674C73.7731 11.4211 73.5897 11.0622 73.4698 10.7034H80.2842V10.64C80.3406 10.2882 80.4041 9.97854 80.4041 9.61965C80.4041 9.31706 80.3406 8.90188 80.2207 8.35299C79.9711 7.52674 79.4957 6.78621 78.8478 6.21445C78.1998 5.64268 77.405 5.26229 76.5525 5.11595C75.6395 4.96806 74.7031 5.08745 73.8567 5.45965C73.0103 5.83184 72.2903 6.44088 71.7838 7.21299C71.0643 8.36002 71.1207 9.50002 71.1207 9.85891C71.1207 10.2811 71.1842 11.6041 72.2706 12.8074C73.5333 14.1867 75.2827 14.25 75.8259 14.3134C78.2314 14.3697 79.861 12.8708 80.2207 12.5682L78.5982 11.3648ZM74.3798 7.63521C74.7325 7.39595 75.1558 7.21299 75.706 7.21299C76.2492 7.21299 76.6654 7.39595 77.0886 7.63521C77.4484 7.9378 77.7517 8.29669 77.9352 8.71891H73.5897C73.6603 8.29669 73.9565 7.87447 74.3798 7.63521Z" fill="white"/>
    </g>
    <defs>
        <clipPath id="clip0">
            <rect width="91" height="19" fill="white"/>
        </clipPath>
    </defs>
</svg>
