<svg width="64" height="26" viewBox="0 0 64 26" fill="none" xmlns="http://www.w3.org/2000/svg">
    <g clip-path="url(#clip0)">
        <path d="M11.7005 3.35205C10.9505 4.23026 9.75048 4.92293 8.55048 4.82398C8.40048 3.63654 8.98798 2.37488 9.67548 1.59562C10.4255 0.692674 11.738 0.0494767 12.8005 0C12.9255 1.23692 12.438 2.4491 11.7005 3.35205ZM12.788 5.05899C11.0505 4.96004 9.56298 6.03616 8.73798 6.03616C7.90048 6.03616 6.63798 5.10847 5.26298 5.13321C3.47548 5.15794 1.81298 6.15985 0.900481 7.75547C-0.974519 10.9467 0.412981 15.6717 2.22548 18.2693C3.11298 19.5557 4.17548 20.9657 5.57548 20.9163C6.90048 20.8668 7.42548 20.0628 9.02548 20.0628C10.638 20.0628 11.1005 20.9163 12.5005 20.8915C13.9505 20.8668 14.863 19.6051 15.7505 18.3187C16.763 16.8592 17.1755 15.4367 17.2005 15.3625C17.1755 15.3378 14.4005 14.2864 14.3755 11.1199C14.3505 8.47288 16.563 7.21123 16.663 7.13701C15.413 5.30638 13.463 5.10847 12.788 5.05899ZM22.8255 1.47193V20.7555H25.8505V14.1627H30.038C33.863 14.1627 36.5505 11.5652 36.5505 7.80495C36.5505 4.04472 33.913 1.47193 30.138 1.47193H22.8255ZM25.8505 3.99524H29.338C31.963 3.99524 33.463 5.38059 33.463 7.81732C33.463 10.254 31.963 11.6518 29.3255 11.6518H25.8505V3.99524ZM42.0755 20.9039C43.9755 20.9039 45.738 19.9515 46.538 18.4424H46.6005V20.7555H49.4005V11.157C49.4005 8.37393 47.1505 6.5804 43.688 6.5804C40.4755 6.5804 38.1005 8.39867 38.013 10.8972H40.738C40.963 9.7098 42.0755 8.93054 43.6005 8.93054C45.4505 8.93054 46.488 9.78402 46.488 11.3549V12.4186L42.713 12.6413C39.2005 12.8516 37.3005 14.274 37.3005 16.7479C37.3005 19.2464 39.263 20.9039 42.0755 20.9039ZM42.888 18.6156C41.2755 18.6156 40.2505 17.8487 40.2505 16.6736C40.2505 15.4615 41.238 14.7564 43.1255 14.6451L46.488 14.4348V15.5233C46.488 17.3292 44.938 18.6156 42.888 18.6156ZM53.138 26C56.088 26 57.4755 24.8868 58.688 21.51L64.0005 6.76594H60.9255L57.363 18.1579H57.3005L53.738 6.76594H50.5755L55.7005 20.8049L55.4255 21.6584C54.963 23.1056 54.213 23.6622 52.8755 23.6622C52.638 23.6622 52.1755 23.6375 51.988 23.6127V25.9258C52.163 25.9753 52.913 26 53.138 26Z" fill="white"/>
    </g>
    <defs>
        <clipPath id="clip0">
            <rect width="64" height="26" fill="white"/>
        </clipPath>
    </defs>
</svg>
