<svg width="69" height="27" viewBox="0 0 69 27" fill="none" xmlns="http://www.w3.org/2000/svg">
    <g clip-path="url(#clip0)">
        <path d="M32.635 13.1905V21.105H30.0869V1.55954H36.8449C37.6516 1.54294 38.4536 1.68391 39.2047 1.97433C39.9558 2.26475 40.6411 2.69887 41.221 3.25162C41.8068 3.77082 42.273 4.40756 42.5883 5.11904C42.9036 5.83053 43.0607 6.60028 43.049 7.37656C43.0658 8.15699 42.9111 8.93176 42.5956 9.64778C42.2801 10.3638 41.8112 11.0041 41.221 11.5249C40.0393 12.6353 38.5806 13.1899 36.8449 13.1889H32.635V13.1905ZM32.635 3.96588V10.7888H36.9082C37.3767 10.8025 37.8429 10.7197 38.2771 10.5456C38.7112 10.3716 39.1037 10.1103 39.4295 9.77822C39.7535 9.46778 40.0111 9.09646 40.187 8.68622C40.3629 8.27599 40.4535 7.83516 40.4535 7.38981C40.4535 6.94447 40.3629 6.50364 40.187 6.0934C40.0111 5.68317 39.7535 5.31185 39.4295 5.00141C39.1078 4.66238 38.7167 4.39459 38.282 4.2158C37.8473 4.037 37.3791 3.95128 36.9082 3.96432H32.635V3.96588ZM48.9208 7.29546C50.8042 7.29546 52.2908 7.79139 53.3807 8.78325C54.4707 9.7751 55.0151 11.135 55.0141 12.863V21.105H52.5767V19.2492H52.466C51.4108 20.7775 50.0075 21.5417 48.256 21.5417C46.7609 21.5417 45.5101 21.105 44.5035 20.2317C44.0205 19.8309 43.6342 19.3289 43.373 18.7623C43.1118 18.1957 42.9822 17.5789 42.9936 16.9567C42.9936 15.5729 43.5244 14.4724 44.5858 13.6552C45.6473 12.838 47.0643 12.4284 48.8369 12.4263C50.3499 12.4263 51.596 12.6992 52.5752 13.245V12.6711C52.5781 12.247 52.4851 11.8275 52.3031 11.4431C52.121 11.0587 51.8545 10.7191 51.5227 10.4488C50.8489 9.84977 49.9707 9.52291 49.0632 9.53338C47.6399 9.53338 46.5135 10.125 45.6842 11.3081L43.44 9.91546C44.6744 8.1688 46.5014 7.29546 48.9208 7.29546ZM45.624 17.0113C45.6223 17.3308 45.6981 17.6462 45.8452 17.931C45.9922 18.2158 46.2061 18.4619 46.4692 18.6488C47.0328 19.0856 47.7322 19.317 48.4491 19.3038C49.5244 19.302 50.5551 18.8803 51.3154 18.131C52.1595 17.3481 52.5815 16.4296 52.5815 15.3753C51.787 14.7515 50.6791 14.4396 49.2579 14.4396C48.2228 14.4396 47.3597 14.6855 46.6686 15.1773C45.9707 15.6763 45.624 16.283 45.624 17.0113ZM69.0049 7.73213L60.4965 27H57.8661L61.0235 20.2582L55.4287 7.73213H58.1984L62.2422 17.3388H62.2975L66.2305 7.73213H69.0049Z" fill="white"/>
        <path d="M22.3381 11.4843C22.3391 10.7191 22.2734 9.95529 22.1419 9.20117H11.3955V13.5257H17.5505C17.4246 14.2164 17.158 14.8748 16.7669 15.4613C16.3757 16.0477 15.8681 16.55 15.2746 16.938V19.7451H18.948C21.0989 17.791 22.3381 14.9012 22.3381 11.4843Z" fill="#4285F4"/>
        <path d="M11.3952 22.4571C14.4704 22.4571 17.0596 21.4621 18.9478 19.7467L15.2744 16.9395C14.252 17.6226 12.9352 18.0125 11.3952 18.0125C8.42296 18.0125 5.90018 16.0381 4.99805 13.3776H1.21387V16.2705C2.16231 18.1302 3.61665 19.6935 5.41452 20.786C7.21238 21.8784 9.28301 22.457 11.3952 22.4571Z" fill="#34A853"/>
        <path d="M4.99855 13.3776C4.52163 11.9835 4.52163 10.4737 4.99855 9.07956V6.18665H1.21437C0.416505 7.75109 0.000976562 9.4777 0.000976562 11.2286C0.000976562 12.9795 0.416505 14.7061 1.21437 16.2705L4.99855 13.3776Z" fill="#FBBC04"/>
        <path d="M11.3952 4.44464C13.0203 4.41848 14.5906 5.0235 15.7666 6.12893L19.019 2.92411C16.9566 1.01537 14.2245 -0.0325571 11.3952 4.27681e-06C9.28301 9.9135e-05 7.21238 0.578672 5.41452 1.67113C3.61665 2.76359 2.16231 4.32693 1.21387 6.18663L4.99805 9.07954C5.90018 6.419 8.42296 4.44464 11.3952 4.44464Z" fill="#EA4335"/>
    </g>
    <defs>
        <clipPath id="clip0">
            <rect width="69" height="27" fill="white"/>
        </clipPath>
    </defs>
</svg>
