<svg width="105" height="25" viewBox="0 0 105 25" fill="none" xmlns="http://www.w3.org/2000/svg">
    <g clip-path="url(#clip0)">
        <path d="M12.5051 0C14.4656 0 16.3256 0.457085 18.0096 1.26968C18.2735 1.38395 18.5374 1.53631 18.8013 1.67598L17.6577 2.70442L15.9234 0.901473L12.9575 3.52971L11.2106 1.65058L5.76899 6.53885L9.26271 10.386L7.90544 11.5795L11.3489 15.4266L9.99162 16.6201L14.918 22.0924L17.8336 19.4134L20.3722 22.2829C19.8695 22.6638 19.3166 23.0447 18.7259 23.3875C16.9036 24.4159 14.8049 25.0127 12.5554 25.0127C5.64332 25.0127 0.0257254 19.4007 0.0257254 12.5063C-0.0245439 5.63738 5.59305 0 12.5051 0ZM10.2053 11.7318L13.1963 9.05282L15.8731 12.0366L12.8821 14.7156L10.2053 11.7318ZM12.3417 16.8867L15.3076 14.1823L18.0096 17.1661L15.0185 19.8451L12.3417 16.8867ZM8.08138 6.64042L11.0724 3.9614L13.7492 6.94515L10.7582 9.62417L8.08138 6.64042ZM13.5607 5.20569L15.7852 3.19959L17.7959 5.42153L15.5715 7.45302L13.5607 5.20569ZM17.532 14.3982L19.7564 12.3921L21.7672 14.6394L19.5428 16.6455L17.532 14.3982ZM19.4925 18.9182L21.7169 16.9121L23.7277 19.1341L21.5033 21.1656L19.4925 18.9182ZM20.3974 8.59573L21.8803 7.26257L23.225 8.74809L21.7421 10.0813L20.3974 8.59573ZM18.4871 4.17725L19.9701 2.81869L21.3022 4.31691L19.8193 5.65007L18.4871 4.17725ZM22.2825 13.0142L23.7654 11.6811L25.1227 13.1666L23.6146 14.4997L22.2825 13.0142ZM15.6092 9.70035L17.8336 7.69426L19.8444 9.9162L17.62 11.9223L15.6092 9.70035Z" fill="#5F93F2"/>
        <mask id="mask0" mask-type="alpha" maskUnits="userSpaceOnUse" x="28" y="7" width="14" height="12">
            <path d="M28.9053 7.16211V18.7035H41.9753V7.16211H28.9053Z" fill="white"/>
        </mask>
        <g mask="url(#mask0)">
            <path d="M35.4654 10.5775H35.3523L33.2284 18.7035H31.4941L28.9053 7.16211H30.7024L32.487 15.7832H32.6001L34.6862 7.16211H36.1189L38.3433 15.7832H38.4564L40.0902 7.16211H41.9753L39.3739 18.7035H37.6396L35.4654 10.5775Z" fill="#5F93F2"/>
        </g>
        <path d="M44.2494 13.7887H47.9191C47.8437 12.0747 47.0268 11.4017 46.1597 11.4017C45.1794 11.4017 44.4254 12.1635 44.2494 13.7887ZM49.201 16.8614V18.093C48.4846 18.5119 47.517 18.8421 46.3608 18.8421C43.6714 18.8421 42.5654 17.1534 42.5654 14.5759C42.5654 12.1001 43.797 10.3098 46.21 10.3098C48.2082 10.3098 49.4523 11.6303 49.4523 14.2839V14.8807H44.2243C44.2243 16.836 45.0035 17.6994 46.6624 17.6994C47.517 17.6994 48.3213 17.3946 49.201 16.8614Z" fill="#5F93F2"/>
        <path d="M53.1726 17.5343C53.6878 17.7628 54.2534 17.8009 54.6429 17.8009C55.8243 17.8009 56.7291 17.0518 56.7291 14.4109C56.7291 12.3413 55.9876 11.681 54.9194 11.681C54.2785 11.681 53.8135 11.8588 53.1726 12.2143V17.5343ZM53.1851 11.0081C53.6627 10.7542 54.4796 10.4114 55.3467 10.4114C57.3323 10.4114 58.4131 11.808 58.4131 14.4109C58.4131 17.4581 56.9679 18.9309 54.6429 18.9309C53.7884 18.9309 52.4814 18.6516 51.5137 18.131V6.78008L53.1851 6.37378V11.0081Z" fill="#5F93F2"/>
        <path d="M65.6398 16.2646H65.7153L69.1461 7.16101H71.1318V18.7024H69.41V10.3352H69.2592L65.9917 18.7024H64.9612L61.6937 10.5257H61.5429V18.7024H60.0977V7.16101H62.0456L65.6398 16.2646Z" fill="#5F93F2"/>
        <path d="M78.2074 14.5759C78.2074 12.3794 77.3277 11.4525 76.2344 11.4525C75.1787 11.4525 74.2613 12.3794 74.2613 14.5759C74.2613 16.8106 75.0907 17.6994 76.2344 17.6994C77.378 17.6994 78.2074 16.8106 78.2074 14.5759ZM72.5898 14.5759C72.5898 11.7319 74.1356 10.3098 76.2469 10.3098C78.3583 10.3098 79.904 11.7319 79.904 14.5759C79.904 17.3565 78.4462 18.8421 76.2469 18.8421C74.0477 18.8421 72.5898 17.3565 72.5898 14.5759Z" fill="#5F93F2"/>
        <path d="M81.1599 11.516C81.8762 11.0716 83.4094 10.3098 85.2443 10.3098C87.1671 10.3098 87.8834 11.0716 87.8834 12.7476V18.6389H86.2119V13.1158C86.2119 11.8334 85.5836 11.6049 84.7667 11.6049C84.1258 11.6049 83.3089 11.8969 82.8062 12.1889V18.6389H81.1348L81.1599 11.516Z" fill="#5F93F2"/>
        <path d="M91.4282 13.7887H95.0978C95.0224 12.0747 94.2055 11.4017 93.3384 11.4017C92.3581 11.4017 91.6041 12.1635 91.4282 13.7887ZM96.3797 16.8614V18.093C95.6633 18.5119 94.6957 18.8421 93.5395 18.8421C90.8501 18.8421 89.7441 17.1534 89.7441 14.5759C89.7441 12.1001 90.9757 10.3098 93.3887 10.3098C95.3994 10.3098 96.631 11.6303 96.631 14.2839V14.8807H91.403C91.403 16.836 92.1948 17.6994 93.8411 17.6994C94.6957 17.6994 95.5 17.3946 96.3797 16.8614Z" fill="#5F93F2"/>
        <path d="M103.279 10.3098H105L102.097 18.4485C101.293 20.6958 100.313 21.8639 98.4778 21.8639V20.5307C99.5712 20.5307 100.237 19.6547 100.627 18.4485L97.5479 10.3098H99.3073L101.356 16.3027H101.456L103.279 10.3098Z" fill="#5F93F2"/>
    </g>
    <defs>
        <clipPath id="clip0">
            <rect width="105" height="25" fill="white"/>
        </clipPath>
    </defs>
</svg>
