<svg width="96" height="24" viewBox="0 0 96 24" fill="none" xmlns="http://www.w3.org/2000/svg">
    <path fill-rule="evenodd" clip-rule="evenodd" d="M0 14.53C0 19.25 2.63 24 8.53 24C14.43 24 17.07 19.25 17.07 14.53C17.07 11.31 15.98 7.61 14.17 4.61C12.43 1.72 10.32 0 8.54 0C6.75 0 4.64 1.72 2.9 4.61C1.08 7.61 0 11.31 0 14.53ZM60.58 7.07H54.61V1.3H72.96V7.08H66.98V22.72H60.58V7.07ZM86.61 7.07H96V1.3H86.6C78 1.29 73.38 5.59 73.38 12C73.38 18.4 77.98 22.71 86.61 22.71H96V16.93H86.6C82.62 16.93 80 15.5 80 12C80 8.5 82.62 7.07 86.61 7.07ZM38.18 14.08L41.6 1.28H52.9V22.71H46.5V5.27L41.85 22.71H34.51L29.88 5.28V22.71H23.48V1.3H34.78L38.19 14.09L38.18 14.08Z" fill="#E30611"/>
</svg>
