<svg width="102" height="33" viewBox="0 0 102 33" fill="none" xmlns="http://www.w3.org/2000/svg">
    <g clip-path="url(#clip0)">
        <path d="M0 16.5C0 25.6152 7.2199 33 16.1315 33C25.0431 33 32.263 25.6152 32.263 16.5C32.263 7.38483 25.0431 0 16.1315 0C7.2199 0 0 7.38483 0 16.5Z" fill="url(#paint0_linear)"/>
        <path fill-rule="evenodd" clip-rule="evenodd" d="M4.06348 5.5618C11.8573 4.88202 20.4064 4.86657 28.2003 5.5618C25.2398 2.14747 20.9351 0 16.1319 0C11.3287 0 7.02394 2.14747 4.06348 5.5618Z" fill="#231F20"/>
        <path fill-rule="evenodd" clip-rule="evenodd" d="M28.3666 27.2528C20.7993 27.8553 11.7971 27.9017 3.89746 27.2528C6.85792 30.7753 11.2382 33 16.132 33C21.0258 33 25.4061 30.7753 28.3666 27.2528Z" fill="#231F20"/>
        <path fill-rule="evenodd" clip-rule="evenodd" d="M0.528654 12.3132C11.0262 12.1278 21.2519 12.0969 31.7343 12.3132C32.0817 13.6573 32.263 15.0632 32.263 16.5C32.263 17.7514 32.1271 18.9874 31.8703 20.1615C21.2519 20.4705 10.7996 20.3933 0.392714 20.1615C0.13594 18.9874 0 17.7514 0 16.5C0 15.0478 0.181253 13.6419 0.528654 12.3132Z" fill="#231F20"/>
        <path d="M97.9218 13.2866C97.9067 13.2866 97.8916 13.3021 97.8916 13.3175V13.6265C97.8916 13.642 97.9067 13.6574 97.9218 13.6574H98.4958V15.6504C98.4958 15.6658 98.5109 15.6813 98.526 15.6813H98.8432C98.8583 15.6813 98.8734 15.6658 98.8734 15.6504V13.6729H99.4474C99.4625 13.6729 99.4776 13.6574 99.4776 13.642V13.333C99.4776 13.3175 99.4625 13.3021 99.4474 13.3021" fill="white"/>
        <path d="M74.2383 10.2894C74.2383 10.9382 74.7367 11.4326 75.3711 11.4326C75.5179 11.4326 75.6632 11.403 75.7988 11.3456C75.9344 11.2881 76.0577 11.2039 76.1615 11.0978C76.2653 10.9916 76.3476 10.8656 76.4037 10.7269C76.4599 10.5882 76.4888 10.4395 76.4888 10.2894C76.4888 10.1392 76.4599 9.99056 76.4037 9.85185C76.3476 9.71315 76.2653 9.58711 76.1615 9.48095C76.0577 9.37479 75.9344 9.29058 75.7988 9.23313C75.6632 9.17567 75.5179 9.1461 75.3711 9.1461C75.2231 9.14405 75.0761 9.17211 74.9387 9.22865C74.8014 9.28519 74.6764 9.36908 74.571 9.47544C74.4656 9.58181 74.3819 9.70853 74.3248 9.84825C74.2677 9.98798 74.2383 10.1379 74.2383 10.2894Z" fill="white"/>
        <path d="M80.144 14.0745L80.0685 14.1208L79.9175 13.7037C79.8722 13.5646 79.7362 13.4719 79.6003 13.4719H78.8753C78.694 13.4719 78.543 13.6264 78.543 13.8273V23.3287C78.543 23.5141 78.694 23.684 78.8753 23.684H80.1742C80.3555 23.684 80.5216 23.5295 80.5216 23.3287V15.6348L80.5519 15.6194C81.0956 15.3259 81.6243 15.1559 82.6816 15.1559C83.9503 15.1559 84.2071 15.6348 84.2071 16.4228V23.3287C84.2071 23.5141 84.3582 23.6686 84.5394 23.6686H85.8384C86.0196 23.6686 86.1707 23.5141 86.1707 23.3287V16.4846C86.1707 14.3834 84.9623 13.2865 82.6665 13.2865C81.8357 13.2711 80.9748 13.5337 80.144 14.0745Z" fill="white"/>
        <path d="M76.3377 13.8119C76.3377 13.611 76.1866 13.4565 76.0054 13.4565H74.7366C74.5553 13.4565 74.4043 13.611 74.4043 13.8119V23.3133C74.4043 23.4987 74.5553 23.6532 74.7366 23.6532H76.0054C76.2017 23.6532 76.3528 23.4987 76.3528 23.3133" fill="white"/>
        <path d="M72.0178 9.05346C72.0178 8.85261 71.8667 8.69812 71.6704 8.69812H70.4167C70.2204 8.69812 70.0693 8.85261 70.0693 9.05346V23.3133C70.0693 23.4987 70.2204 23.6532 70.4167 23.6532H71.6704C71.8667 23.6532 72.0178 23.4987 72.0178 23.3133" fill="white"/>
        <path d="M52.5328 17.6588C52.6234 16.3456 52.9708 15.1405 54.7682 15.1405C56.3089 15.1405 56.611 15.9903 56.6563 17.6588V17.736H52.5328V17.6588ZM50.5088 18.5703C50.5088 19.8835 50.5088 23.8695 54.7531 23.8695C56.0219 23.8695 56.8677 23.7922 57.9553 23.4369C58.0912 23.3905 58.1516 23.2515 58.1516 23.1279V22.0619C58.1516 21.9383 58.0912 21.8302 58.0006 21.7684C57.9099 21.7066 57.7891 21.722 57.6834 21.7375C56.7318 21.9383 55.9766 22.0001 54.7531 22.0001C52.9859 22.0001 52.6385 20.8568 52.5328 19.6209L52.5177 19.5436H58.2876C58.4839 19.5436 58.635 19.3891 58.635 19.2037V18.6012C58.635 16.0366 58.3329 13.3021 54.7531 13.3021C50.5088 13.2712 50.5088 17.2571 50.5088 18.5703Z" fill="white"/>
        <path d="M62.169 17.6588C62.2597 16.3456 62.6071 15.1405 64.4045 15.1405C65.9452 15.1405 66.2472 15.9903 66.2775 17.6588V17.736H62.1539L62.169 17.6588ZM60.1602 18.5703C60.1602 19.8835 60.1602 23.8695 64.4045 23.8695C65.6733 23.8695 66.5191 23.7922 67.6066 23.4369C67.7275 23.3905 67.803 23.2515 67.803 23.1279V22.0619C67.803 21.9383 67.7426 21.8302 67.652 21.7684C67.5613 21.7066 67.4405 21.722 67.3348 21.7375C66.3832 21.9383 65.628 22.0001 64.4045 22.0001C62.6373 22.0001 62.2899 20.8568 62.1842 19.6209L62.169 19.5436H67.9389C68.1202 19.5436 68.2712 19.3891 68.2712 19.2037V18.6012C68.2712 16.0366 67.9692 13.3021 64.4045 13.3021C60.1602 13.2712 60.1602 17.2571 60.1602 18.5703Z" fill="white"/>
        <path d="M89.9161 17.6588C90.0067 16.3456 90.3541 15.1405 92.1516 15.1405C93.6922 15.1405 93.9943 15.9903 94.0245 17.6588V17.736H89.901L89.9161 17.6588ZM87.9072 18.5703C87.9072 19.8835 87.9072 23.8695 92.1516 23.8695C93.4203 23.8695 94.2662 23.7922 95.3537 23.4369C95.4745 23.3905 95.5501 23.2515 95.5501 23.1279V22.0619C95.5501 21.9383 95.4896 21.8302 95.399 21.7684C95.3084 21.7066 95.1876 21.722 95.0818 21.7375C94.1302 21.9383 93.375 22.0001 92.1516 22.0001C90.3843 22.0001 90.037 20.8568 89.9312 19.6209L89.9161 19.5436H95.686C95.8672 19.5436 96.0183 19.3891 96.0183 19.2037V18.6012C96.0183 16.0366 95.7162 13.3021 92.1516 13.3021C87.8921 13.2712 87.9072 17.2571 87.9072 18.5703Z" fill="white"/>
        <path d="M44.2256 16.9017C46.2345 16.9017 46.9444 17.5197 46.9444 19.2809C46.9444 20.4551 46.6121 21.6602 44.1803 21.6602H41.25V16.8863L44.2256 16.9017ZM44.0746 10.6602C46.1892 10.6602 46.4762 11.6953 46.4762 12.7922C46.4762 14.1981 45.736 14.8933 44.2256 14.8933H41.2651V10.6602H44.0746ZM39.5734 8.65173C39.3771 8.65173 39.2109 8.82168 39.2109 9.02252V23.2823C39.2109 23.4832 39.3771 23.6531 39.5734 23.6531H44.1199C47.3673 23.6531 49.1496 22.0927 49.1496 19.2655C49.1496 17.7206 48.4246 16.4073 47.2163 15.7585L47.1559 15.7276L47.2163 15.6967C48.1527 15.0015 48.6965 13.9354 48.6965 12.7922C48.6965 11.2472 48.0923 8.65173 43.999 8.65173" fill="white"/>
        <path d="M101.577 13.2866C101.562 13.2866 101.547 13.3021 101.547 13.3021C101.547 13.3021 100.958 14.6925 100.912 14.8316C100.852 14.6925 100.278 13.3021 100.278 13.3021C100.278 13.2866 100.263 13.2866 100.248 13.2866H99.8398C99.8247 13.2866 99.8096 13.3021 99.8096 13.3175V15.6658C99.8096 15.6813 99.8247 15.6967 99.8398 15.6967H100.157C100.157 15.6967 100.172 15.6967 100.187 15.6813C100.187 15.6813 100.202 15.6658 100.202 15.6504C100.202 15.6504 100.187 14.2908 100.187 14.0127L100.761 15.3568C100.761 15.3723 100.776 15.3723 100.791 15.3723H101.033C101.048 15.3723 101.063 15.3568 101.063 15.3568L101.637 14.0127C101.637 14.3063 101.622 15.6504 101.622 15.6504C101.622 15.6658 101.622 15.6658 101.637 15.6813C101.637 15.6967 101.652 15.6967 101.667 15.6967H101.985C102 15.6967 102.015 15.6813 102.015 15.6658V13.3175C102.015 13.3021 102 13.2866 101.985 13.2866" fill="white"/>
    </g>
    <defs>
        <linearGradient id="paint0_linear" x1="-0.00402532" y1="16.4641" x2="32.2302" y2="16.4641" gradientUnits="userSpaceOnUse">
            <stop stop-color="#FAA61A"/>
            <stop offset="1" stop-color="#FFE100"/>
        </linearGradient>
        <clipPath id="clip0">
            <rect width="102" height="33" fill="white"/>
        </clipPath>
    </defs>
</svg>
