<svg width="109" height="20" viewBox="0 0 109 20" fill="none" xmlns="http://www.w3.org/2000/svg">
    <g clip-path="url(#clip0)">
        <path d="M10.8776 0.0588379V10.353C10.8776 10.8235 10.5359 11.1765 10.0803 11.1765H8.88441C8.82746 11.1765 8.77051 11.2353 8.77051 11.2941V19.9412C9.05525 19.9412 9.34 20 9.68169 20C15.0349 20 19.363 15.5294 19.363 10C19.363 4.88237 15.6613 0.647073 10.8776 0.0588379ZM10.6498 15.4706C9.96643 15.4706 9.45389 14.8824 9.45389 14.2353C9.45389 13.5294 10.0234 13 10.6498 13C11.3332 13 11.8457 13.5883 11.8457 14.2353C11.9027 14.8824 11.3332 15.4706 10.6498 15.4706ZM13.4973 15.4706C12.8139 15.4706 12.3013 14.8824 12.3013 14.2353C12.3013 13.5294 12.8708 13 13.4973 13C14.1806 13 14.6932 13.5883 14.6932 14.2353C14.6932 14.8824 14.1806 15.4706 13.4973 15.4706ZM16.3447 15.4706C15.6613 15.4706 15.1488 14.8824 15.1488 14.2353C15.1488 13.5294 15.7183 13 16.3447 13C17.0281 13 17.5406 13.5883 17.5406 14.2353C17.5406 14.8824 17.0281 15.4706 16.3447 15.4706Z" fill="#00CB51"/>
        <path d="M9.6813 0C4.32811 0 0 4.47059 0 10C0 14.8235 3.24608 18.8235 7.63114 19.7647V10.7647C7.63114 10.3529 7.97283 10 8.37147 9.94118H9.5674C9.62435 9.94118 9.6813 9.88235 9.6813 9.82353V0ZM7.80199 8.23529C7.1186 8.23529 6.60606 7.64706 6.60606 7C6.60606 6.29412 7.17555 5.76471 7.80199 5.76471C8.48537 5.76471 8.99791 6.35294 8.99791 7C8.99791 7.64706 8.48537 8.23529 7.80199 8.23529Z" fill="#00CB51"/>
        <path d="M106.608 5.47062V9.23533H101.71V5.47062H99.2613V15.4706H101.71V11.4118H106.608V15.4706H109V5.47062H106.608ZM66.288 6.58827C65.8893 5.70592 65.0921 5.23533 64.2948 5.23533C63.4975 5.23533 62.7002 5.70592 62.3016 6.58827L58.3721 15.4706H60.9348L61.789 13.353H66.8005L67.6547 15.4706H70.2174L66.288 6.58827ZM62.5863 11.353L64.067 7.70592C64.1239 7.58827 64.1809 7.58827 64.2378 7.58827C64.2948 7.58827 64.4087 7.58827 64.4087 7.70592L65.8893 11.353H62.5863ZM37.4719 3.64709C36.3329 3.64709 35.5926 4.29415 35.08 5.52945L31.9479 13.0589L28.8157 5.52945C28.3031 4.29415 27.5628 3.64709 26.4238 3.64709C25.3418 3.64709 24.2598 4.4118 24.2598 6.11768V15.4118H26.6516V6.4118L29.8407 13.8824C30.2394 14.9412 30.9797 15.5883 31.9479 15.5883C32.9729 15.5883 33.6563 14.9412 34.055 13.8824L37.2441 6.4118V15.4706H39.6359V6.17651C39.6359 4.47062 38.5539 3.64709 37.4719 3.64709ZM43.9071 13.353C43.7932 13.353 43.6793 13.2353 43.6793 13.1177V11.353H49.7159V9.29415H43.6793V7.76474C43.6793 7.64709 43.7932 7.52945 43.9071 7.52945H49.8867V5.4118H42.7112C41.8569 5.4118 41.2875 6.11768 41.2875 6.88239V13.8824C41.2875 14.6471 41.9139 15.353 42.7112 15.353H49.8867V13.2353H43.9071V13.353ZM53.9301 15.4706V7.82357C53.9301 7.70592 54.044 7.58827 54.1579 7.58827H60.1375V5.47062H52.962C52.1077 5.47062 51.5382 6.17651 51.5382 6.94121V15.4118H53.9301V15.4706ZM97.6668 10.4706C97.6668 7.00004 96.1861 5.35298 92.5414 5.35298H91.6871C88.0424 5.35298 86.5617 7.00004 86.5617 10.4706C86.5617 13.8824 88.0424 15.5883 91.6871 15.5883H92.4844C96.1861 15.5294 97.6668 13.8824 97.6668 10.4706ZM92.4844 13.4706H91.6871C89.6939 13.4706 88.8967 12.5294 88.8967 10.4706C88.8967 8.47062 89.58 7.47062 91.6871 7.47062H92.4844C94.5346 7.47062 95.2749 8.47062 95.2749 10.4706C95.2749 12.5294 94.5346 13.4706 92.4844 13.4706ZM79.8418 3.88239H75.0581C71.4703 3.88239 70.0466 5.76474 70.0466 9.00004C70.0466 9.52945 70.1035 10 70.1605 10.4118C70.5591 12.7059 71.869 14.1177 75.2289 14.1177H76.311V15.4118H78.7028V14.1177H79.7279C83.0879 14.1177 84.3977 12.7059 84.7963 10.4118C84.8533 10 84.9102 9.52945 84.9102 9.00004C84.8533 5.76474 83.3726 3.88239 79.8418 3.88239ZM76.1971 12.0589H75.115C73.4635 12.0589 72.894 11.4118 72.5523 10.4118C72.4384 10.0589 72.4384 9.52945 72.4384 9.00004C72.4384 6.88239 73.4066 6.00004 74.7733 6.00004H76.254V12.0589H76.1971ZM82.3475 10.4706C82.0058 11.4706 81.3794 12.1177 79.7848 12.1177H78.7028V6.00004H80.1835C81.5503 6.00004 82.5184 6.88239 82.5184 9.00004C82.4614 9.58827 82.4614 10.0589 82.3475 10.4706Z" fill="#00CB51"/>
    </g>
    <defs>
        <clipPath id="clip0">
            <rect width="109" height="20" fill="white"/>
        </clipPath>
    </defs>
</svg>
