<svg width="22" height="22" viewBox="0 0 22 22" fill="none" xmlns="http://www.w3.org/2000/svg">
    <path d="M21.9996 1.11417C21.9882 1.01296 21.966 0.913252 21.9336 0.816709V0.717555C21.8808 0.594945 21.8062 0.482954 21.7135 0.387044C21.6201 0.299199 21.512 0.228361 21.3943 0.17772H21.2952C21.1938 0.100172 21.0777 0.0439594 20.954 0.0124647H20.899C20.7895 -0.00415489 20.6782 -0.00415489 20.5688 0.0124647L0.756976 6.62269C0.53677 6.69514 0.345035 6.83532 0.209108 7.02326C0.0731804 7.2112 0 7.43729 0 7.66931C0 7.90133 0.0731804 8.12742 0.209108 8.31536C0.345035 8.50329 0.53677 8.64348 0.756976 8.71593L10.1456 11.8448L13.2714 21.2423C13.3438 21.4627 13.4839 21.6546 13.6716 21.7907C13.8594 21.9268 14.0853 22 14.3171 22C14.5489 22 14.7747 21.9268 14.9625 21.7907C15.1503 21.6546 15.2903 21.4627 15.3627 21.2423L21.9666 1.41163C21.9911 1.31444 22.0022 1.21436 21.9996 1.11417ZM16.8266 3.63707L10.6959 9.77356L4.56525 7.72439L16.8266 3.63707ZM14.295 17.4635L12.2478 11.327L18.3785 5.19047L14.295 17.4635Z" fill="#6C6B8B"/>
</svg>
