<svg width="68" height="68" viewBox="0 0 68 68" fill="none" xmlns="http://www.w3.org/2000/svg">
    <path opacity="0.09" d="M30.2412 2.02072C32.407 0.770295 35.0753 0.770296 37.2411 2.02073L59.4618 14.8498C61.6277 16.1003 62.9618 18.4112 62.9618 20.912V46.5703C62.9618 49.0711 61.6277 51.382 59.4618 52.6325L37.2411 65.4616C35.0753 66.712 32.407 66.712 30.2411 65.4616L8.02045 52.6325C5.85465 51.382 4.52046 49.0711 4.52046 46.5703V20.912C4.52046 18.4112 5.85465 16.1003 8.02046 14.8498L30.2412 2.02072Z" fill="#FFB800"/>
    <g filter="url(#filter0_i)">
        <path d="M30.7412 10.9204C32.5976 9.84865 34.8848 9.84865 36.7412 10.9204L52.0046 19.7328C53.861 20.8046 55.0046 22.7853 55.0046 24.9289V42.5535C55.0046 44.6971 53.861 46.6779 52.0046 47.7497L36.7412 56.562C34.8848 57.6338 32.5976 57.6338 30.7412 56.562L15.4779 47.7497C13.6214 46.6779 12.4778 44.6971 12.4778 42.5536V24.9289C12.4778 22.7853 13.6214 20.8046 15.4778 19.7328L30.7412 10.9204Z" stroke="#FFBA00" stroke-width="2"/>
    </g>
    <g clip-path="url(#clip0)">
        <path d="M33.7381 24.1008C33.7228 24.1013 33.7076 24.1021 33.6923 24.1033C33.6276 24.1081 33.5639 24.1216 33.5027 24.1434C33.4565 24.1601 33.4121 24.1813 33.3702 24.2069L25.6563 28.6599C25.5477 28.7226 25.4574 28.8127 25.3947 28.9213C25.3319 29.0299 25.2989 29.1531 25.2988 29.2785V38.2046C25.2988 38.334 25.334 38.4609 25.4005 38.5718C25.467 38.6827 25.5623 38.7735 25.6764 38.8345L33.3871 43.2859L33.4304 43.3092V43.3108C33.4522 43.3213 33.4744 43.3307 33.4971 43.3389L33.5068 43.3421C33.5293 43.3502 33.5518 43.3566 33.575 43.3614C33.5831 43.3622 33.5839 43.3638 33.5879 43.3646C33.666 43.3813 33.7463 43.3854 33.8257 43.3767C33.849 43.3741 33.872 43.3701 33.8948 43.3646C33.9028 43.3646 33.9036 43.363 33.9076 43.3614C33.9307 43.3561 33.9535 43.3496 33.9759 43.3421L33.9856 43.3389C34.0083 43.3307 34.0305 43.3213 34.0522 43.3108V43.3092C34.0669 43.3018 34.0814 43.2941 34.0956 43.2859L41.8071 38.8345C41.921 38.7734 42.0162 38.6826 42.0826 38.5717C42.1489 38.4607 42.1839 38.3339 42.1839 38.2046V29.3066L42.1831 29.2857V29.2793C42.183 29.176 42.1606 29.074 42.1173 28.9803C42.0741 28.8865 42.011 28.8033 41.9324 28.7362L41.9091 28.717C41.9091 28.7153 41.9011 28.7129 41.9011 28.7113C41.8738 28.6906 41.8451 28.6718 41.8151 28.6551L34.1053 24.2029C33.993 24.1353 33.8643 24.1 33.7333 24.1008H33.7381ZM33.7462 25.9108C33.804 25.9108 33.8618 25.9261 33.9141 25.9558L39.1656 28.9877C39.2167 29.0172 39.2591 29.0596 39.2886 29.1106C39.318 29.1616 39.3335 29.2196 39.3335 29.2785C39.3335 29.3375 39.318 29.3954 39.2886 29.4464C39.2591 29.4975 39.2167 29.5398 39.1656 29.5693L33.9141 32.6012C33.863 32.6307 33.8051 32.6462 33.7462 32.6462C33.6872 32.6462 33.6293 32.6307 33.5783 32.6012L28.3267 29.5693C28.2756 29.5398 28.2333 29.4975 28.2038 29.4464C28.1743 29.3954 28.1588 29.3375 28.1588 29.2785C28.1588 29.2196 28.1743 29.1616 28.2038 29.1106C28.2333 29.0596 28.2756 29.0172 28.3267 28.9877L33.5783 25.9558C33.6293 25.9264 33.6872 25.9109 33.7462 25.9108ZM27.255 31.0989C27.3157 31.0981 27.3754 31.114 27.4277 31.1447L32.6689 34.1702C32.7197 34.1996 32.7619 34.2419 32.7912 34.2928C32.8206 34.3437 32.836 34.4014 32.836 34.4602V40.5119C32.836 40.5708 32.8205 40.6286 32.7911 40.6795C32.7616 40.7305 32.7193 40.7728 32.6683 40.8022C32.6173 40.8316 32.5595 40.8471 32.5006 40.847C32.4418 40.847 32.384 40.8314 32.3331 40.8019L27.0927 37.7765C27.0416 37.747 26.9992 37.7047 26.9697 37.6536C26.9402 37.6025 26.9247 37.5446 26.9248 37.4856V31.4355C26.9248 31.2419 27.0823 31.1029 27.2542 31.0997L27.255 31.0989ZM40.2373 31.0989C40.41 31.1021 40.5667 31.2411 40.5667 31.4347V37.4856C40.5667 37.6061 40.5024 37.7162 40.3996 37.7765L35.1585 40.8019C35.1075 40.8314 35.0497 40.847 34.9909 40.847C34.932 40.8471 34.8742 40.8316 34.8232 40.8022C34.7722 40.7728 34.7299 40.7305 34.7005 40.6795C34.671 40.6286 34.6555 40.5708 34.6556 40.5119V34.4602C34.6556 34.3405 34.7198 34.2304 34.8235 34.171L40.0638 31.1447C40.1164 31.1139 40.1764 31.098 40.2373 31.0989Z" fill="white"/>
    </g>
    <defs>
        <filter id="filter0_i" x="9.47803" y="9.1167" width="46.5268" height="53.2493" filterUnits="userSpaceOnUse" color-interpolation-filters="sRGB">
            <feFlood flood-opacity="0" result="BackgroundImageFix"/>
            <feBlend mode="normal" in="SourceGraphic" in2="BackgroundImageFix" result="shape"/>
            <feColorMatrix in="SourceAlpha" type="matrix" values="0 0 0 0 0 0 0 0 0 0 0 0 0 0 0 0 0 0 127 0" result="hardAlpha"/>
            <feOffset dx="-2" dy="4"/>
            <feGaussianBlur stdDeviation="10"/>
            <feComposite in2="hardAlpha" operator="arithmetic" k2="-1" k3="1"/>
            <feColorMatrix type="matrix" values="0 0 0 0 1 0 0 0 0 1 0 0 0 0 1 0 0 0 0.28 0"/>
            <feBlend mode="normal" in2="shape" result="effect1_innerShadow"/>
        </filter>
        <clipPath id="clip0">
            <rect width="19.2807" height="19.2807" fill="white" transform="translate(24.1011 24.1008)"/>
        </clipPath>
    </defs>
</svg>
