<svg width="68" height="68" viewBox="0 0 68 68" fill="none" xmlns="http://www.w3.org/2000/svg">
    <path opacity="0.09" d="M30.2412 2.02072C32.407 0.770295 35.0753 0.770296 37.2411 2.02073L59.4618 14.8498C61.6277 16.1003 62.9618 18.4112 62.9618 20.912V46.5703C62.9618 49.0711 61.6277 51.382 59.4618 52.6325L37.2411 65.4616C35.0753 66.712 32.407 66.712 30.2411 65.4616L8.02045 52.6325C5.85465 51.382 4.52046 49.0711 4.52046 46.5703V20.912C4.52046 18.4112 5.85465 16.1003 8.02046 14.8498L30.2412 2.02072Z" fill="#FFB800"/>
    <g filter="url(#filter0_i)">
        <path d="M30.7412 10.9204C32.5976 9.84865 34.8848 9.84865 36.7412 10.9204L52.0046 19.7328C53.861 20.8046 55.0046 22.7853 55.0046 24.9289V42.5535C55.0046 44.6971 53.861 46.6779 52.0046 47.7497L36.7412 56.562C34.8848 57.6338 32.5976 57.6338 30.7412 56.562L15.4779 47.7497C13.6214 46.6779 12.4778 44.6971 12.4778 42.5536V24.9289C12.4778 22.7853 13.6214 20.8046 15.4778 19.7328L30.7412 10.9204Z" stroke="#FFBA00" stroke-width="2"/>
    </g>
    <path d="M37.2561 39.3647H30.2267C29.8538 39.3647 29.4962 39.5129 29.2326 39.7765C28.9689 40.0402 28.8208 40.3978 28.8208 40.7706V42.1765C28.8208 42.5494 28.9689 42.907 29.2326 43.1706C29.4962 43.4343 29.8538 43.5824 30.2267 43.5824H37.2561C37.629 43.5824 37.9865 43.4343 38.2502 43.1706C38.5139 42.907 38.662 42.5494 38.662 42.1765V40.7706C38.662 40.3978 38.5139 40.0402 38.2502 39.7765C37.9865 39.5129 37.629 39.3647 37.2561 39.3647ZM37.2561 42.1765H30.2267V40.7706H37.2561V42.1765Z" fill="white"/>
    <path d="M42.6734 32.5412L34.2381 24.106C34.1063 23.9742 33.9275 23.9001 33.7411 23.9001C33.5547 23.9001 33.3759 23.9742 33.2441 24.106L24.8088 32.5412C24.7106 32.6396 24.6436 32.7648 24.6165 32.9011C24.5894 33.0375 24.6033 33.1788 24.6565 33.3072C24.7097 33.4356 24.7998 33.5454 24.9154 33.6227C25.0309 33.6999 25.1668 33.7411 25.3058 33.7412H28.8205V36.5529C28.8209 36.9257 28.9691 37.2831 29.2327 37.5466C29.4963 37.8102 29.8537 37.9584 30.2264 37.9588H37.2558C37.6285 37.9583 37.9858 37.81 38.2493 37.5464C38.5128 37.2829 38.6611 36.9256 38.6617 36.5529V33.7412H42.1764C42.3154 33.7411 42.4513 33.6999 42.5668 33.6227C42.6824 33.5454 42.7725 33.4356 42.8257 33.3072C42.8789 33.1788 42.8928 33.0375 42.8657 32.9011C42.8386 32.7648 42.7716 32.6396 42.6734 32.5412ZM37.2558 32.3353V36.5529H30.2264V32.3353H27.0027L33.7411 25.5969L40.4795 32.3353H37.2558Z" fill="white"/>
    <defs>
        <filter id="filter0_i" x="9.47803" y="9.1167" width="46.5268" height="53.2493" filterUnits="userSpaceOnUse" color-interpolation-filters="sRGB">
            <feFlood flood-opacity="0" result="BackgroundImageFix"/>
            <feBlend mode="normal" in="SourceGraphic" in2="BackgroundImageFix" result="shape"/>
            <feColorMatrix in="SourceAlpha" type="matrix" values="0 0 0 0 0 0 0 0 0 0 0 0 0 0 0 0 0 0 127 0" result="hardAlpha"/>
            <feOffset dx="-2" dy="4"/>
            <feGaussianBlur stdDeviation="10"/>
            <feComposite in2="hardAlpha" operator="arithmetic" k2="-1" k3="1"/>
            <feColorMatrix type="matrix" values="0 0 0 0 1 0 0 0 0 1 0 0 0 0 1 0 0 0 0.28 0"/>
            <feBlend mode="normal" in2="shape" result="effect1_innerShadow"/>
        </filter>
    </defs>
</svg>
