<svg width="68" height="68" viewBox="0 0 68 68" fill="none" xmlns="http://www.w3.org/2000/svg">
    <path opacity="0.09" d="M30.2412 2.02072C32.407 0.770295 35.0753 0.770296 37.2411 2.02073L59.4618 14.8498C61.6277 16.1003 62.9618 18.4112 62.9618 20.912V46.5703C62.9618 49.0711 61.6277 51.382 59.4618 52.6325L37.2411 65.4616C35.0753 66.712 32.407 66.712 30.2411 65.4616L8.02045 52.6325C5.85465 51.382 4.52046 49.0711 4.52046 46.5703V20.912C4.52046 18.4112 5.85465 16.1003 8.02046 14.8498L30.2412 2.02072Z" fill="#FFB800"/>
    <g filter="url(#filter0_i)">
        <path d="M30.7407 10.9204C32.5971 9.84865 34.8843 9.84865 36.7407 10.9204L52.0041 19.7328C53.8605 20.8046 55.0041 22.7853 55.0041 24.9289V42.5535C55.0041 44.6971 53.8605 46.6779 52.0041 47.7497L36.7407 56.562C34.8843 57.6338 32.5972 57.6338 30.7407 56.562L15.4774 47.7497C13.621 46.6779 12.4774 44.6971 12.4774 42.5536V24.9289C12.4774 22.7853 13.621 20.8046 15.4774 19.7328L30.7407 10.9204Z" stroke="#FFBA00" stroke-width="2"/>
    </g>
    <path d="M37.2556 39.3647H30.2262C29.8533 39.3647 29.4957 39.5129 29.2321 39.7765C28.9684 40.0402 28.8203 40.3978 28.8203 40.7706V42.1765C28.8203 42.5494 28.9684 42.907 29.2321 43.1706C29.4957 43.4343 29.8533 43.5824 30.2262 43.5824H37.2556C37.6285 43.5824 37.9861 43.4343 38.2497 43.1706C38.5134 42.907 38.6615 42.5494 38.6615 42.1765V40.7706C38.6615 40.3978 38.5134 40.0402 38.2497 39.7765C37.9861 39.5129 37.6285 39.3647 37.2556 39.3647ZM37.2556 42.1765H30.2262V40.7706H37.2556V42.1765Z" fill="white"/>
    <path d="M42.6739 32.5412L34.2386 24.106C34.1068 23.9742 33.928 23.9001 33.7416 23.9001C33.5552 23.9001 33.3764 23.9742 33.2446 24.106L24.8093 32.5412C24.711 32.6396 24.6441 32.7648 24.617 32.9011C24.5899 33.0375 24.6038 33.1788 24.657 33.3072C24.7102 33.4356 24.8003 33.5454 24.9159 33.6227C25.0314 33.6999 25.1673 33.7411 25.3063 33.7412H28.821V36.5529C28.8214 36.9257 28.9696 37.2831 29.2332 37.5466C29.4968 37.8102 29.8541 37.9584 30.2269 37.9588H37.2563C37.629 37.9583 37.9863 37.81 38.2498 37.5464C38.5133 37.2829 38.6616 36.9256 38.6622 36.5529V33.7412H42.1769C42.3159 33.7411 42.4518 33.6999 42.5673 33.6227C42.6829 33.5454 42.773 33.4356 42.8262 33.3072C42.8794 33.1788 42.8933 33.0375 42.8662 32.9011C42.8391 32.7648 42.7721 32.6396 42.6739 32.5412ZM37.2563 32.3353V36.5529H30.2269V32.3353H27.0032L33.7416 25.5969L40.48 32.3353H37.2563Z" fill="white"/>
    <defs>
        <filter id="filter0_i" x="9.47754" y="9.1167" width="46.5268" height="53.2493" filterUnits="userSpaceOnUse" color-interpolation-filters="sRGB">
            <feFlood flood-opacity="0" result="BackgroundImageFix"/>
            <feBlend mode="normal" in="SourceGraphic" in2="BackgroundImageFix" result="shape"/>
            <feColorMatrix in="SourceAlpha" type="matrix" values="0 0 0 0 0 0 0 0 0 0 0 0 0 0 0 0 0 0 127 0" result="hardAlpha"/>
            <feOffset dx="-2" dy="4"/>
            <feGaussianBlur stdDeviation="10"/>
            <feComposite in2="hardAlpha" operator="arithmetic" k2="-1" k3="1"/>
            <feColorMatrix type="matrix" values="0 0 0 0 1 0 0 0 0 1 0 0 0 0 1 0 0 0 0.28 0"/>
            <feBlend mode="normal" in2="shape" result="effect1_innerShadow"/>
        </filter>
    </defs>
</svg>
