<svg width="68" height="68" viewBox="0 0 68 68" fill="none" xmlns="http://www.w3.org/2000/svg">
<path opacity="0.09" d="M30.2412 2.02072C32.407 0.770295 35.0753 0.770296 37.2411 2.02073L59.4618 14.8498C61.6277 16.1003 62.9618 18.4112 62.9618 20.912V46.5703C62.9618 49.0711 61.6277 51.382 59.4618 52.6325L37.2411 65.4616C35.0753 66.712 32.407 66.712 30.2411 65.4616L8.02045 52.6324C5.85465 51.382 4.52046 49.0711 4.52046 46.5703V20.912C4.52046 18.4112 5.85465 16.1003 8.02046 14.8498L30.2412 2.02072Z" fill="#FFB800"/>
<g filter="url(#filter0_i)">
<path d="M36.7412 10.9204L52.0046 19.7328C53.861 20.8046 55.0046 22.7853 55.0046 24.9289V42.5535C55.0046 44.6971 53.861 46.6779 52.0046 47.7497L36.7412 56.562C34.8848 57.6338 32.5976 57.6338 30.7412 56.562L15.4779 47.7497C13.6214 46.6779 12.4778 44.6971 12.4778 42.5536V24.9289C12.4778 22.7853 13.6214 20.8046 15.4778 19.7328L30.7412 10.9204C32.5976 9.84865 34.8848 9.84865 36.7412 10.9204Z" stroke="#FFBA00" stroke-width="2"/>
</g>
<path d="M41.7782 36.2218C40.5801 35.0237 39.1541 34.1368 37.5982 33.5999C39.2646 32.4522 40.3594 30.5314 40.3594 28.3594C40.3594 24.8528 37.5066 22 34 22C30.4934 22 27.6406 24.8528 27.6406 28.3594C27.6406 30.5314 28.7354 32.4522 30.4019 33.5999C28.846 34.1368 27.4199 35.0237 26.2218 36.2218C24.1442 38.2995 23 41.0618 23 44H24.7188C24.7188 38.8823 28.8823 34.7188 34 34.7188C39.1177 34.7188 43.2812 38.8823 43.2812 44H45C45 41.0618 43.8558 38.2995 41.7782 36.2218ZM34 33C31.4412 33 29.3594 30.9182 29.3594 28.3594C29.3594 25.8005 31.4412 23.7188 34 23.7188C36.5588 23.7188 38.6406 25.8005 38.6406 28.3594C38.6406 30.9182 36.5588 33 34 33Z" fill="white"/>
<defs>
<filter id="filter0_i" x="9.47803" y="9.1167" width="46.5268" height="53.2493" filterUnits="userSpaceOnUse" color-interpolation-filters="sRGB">
<feFlood flood-opacity="0" result="BackgroundImageFix"/>
<feBlend mode="normal" in="SourceGraphic" in2="BackgroundImageFix" result="shape"/>
<feColorMatrix in="SourceAlpha" type="matrix" values="0 0 0 0 0 0 0 0 0 0 0 0 0 0 0 0 0 0 127 0" result="hardAlpha"/>
<feOffset dx="-2" dy="4"/>
<feGaussianBlur stdDeviation="10"/>
<feComposite in2="hardAlpha" operator="arithmetic" k2="-1" k3="1"/>
<feColorMatrix type="matrix" values="0 0 0 0 1 0 0 0 0 1 0 0 0 0 1 0 0 0 0.28 0"/>
<feBlend mode="normal" in2="shape" result="effect1_innerShadow"/>
</filter>
</defs>
</svg>
