<svg width="68" height="68" viewBox="0 0 68 68" fill="none" xmlns="http://www.w3.org/2000/svg">
    <path opacity="0.09" d="M30.2412 2.02072C32.407 0.770295 35.0753 0.770296 37.2411 2.02073L59.4618 14.8498C61.6277 16.1003 62.9618 18.4112 62.9618 20.912V46.5703C62.9618 49.0711 61.6277 51.382 59.4618 52.6325L37.2411 65.4616C35.0753 66.712 32.407 66.712 30.2411 65.4616L8.02045 52.6325C5.85465 51.382 4.52046 49.0711 4.52046 46.5703V20.912C4.52046 18.4112 5.85465 16.1003 8.02046 14.8498L30.2412 2.02072Z" fill="#FFB800"/>
    <g filter="url(#filter0_i)">
        <path d="M30.7407 10.9204C32.5971 9.84865 34.8843 9.84865 36.7407 10.9204L52.0041 19.7328C53.8605 20.8046 55.0041 22.7853 55.0041 24.9289V42.5535C55.0041 44.6971 53.8605 46.6779 52.0041 47.7497L36.7407 56.562C34.8843 57.6338 32.5972 57.6338 30.7407 56.562L15.4774 47.7497C13.621 46.6779 12.4774 44.6971 12.4774 42.5536V24.9289C12.4774 22.7853 13.621 20.8046 15.4774 19.7328L30.7407 10.9204Z" stroke="#FFBA00" stroke-width="2"/>
    </g>
    <path d="M35.2216 34.0001L40.8582 42.4545C40.9041 42.5235 40.9305 42.6037 40.9345 42.6865C40.9384 42.7693 40.9198 42.8517 40.8807 42.9247C40.8416 42.9978 40.7834 43.0589 40.7122 43.1016C40.6411 43.1442 40.5598 43.1667 40.4769 43.1667L27.5225 43.1667C27.4396 43.1667 27.3583 43.1442 27.2872 43.1016C27.2161 43.0589 27.1579 42.9978 27.1187 42.9247C27.0796 42.8517 27.061 42.7693 27.065 42.6865C27.0689 42.6037 27.0953 42.5235 27.1412 42.4545L32.7778 34.0001L27.5225 34.0001C27.4396 34 27.3583 33.9775 27.2872 33.9349C27.2161 33.8923 27.1579 33.8312 27.1187 33.7581C27.0796 33.685 27.061 33.6027 27.065 33.5198C27.0689 33.437 27.0953 33.3569 27.1412 33.2878L33.6184 23.5721C33.6602 23.5093 33.7169 23.4578 33.7835 23.4222C33.85 23.3866 33.9243 23.368 33.9997 23.368C34.0752 23.368 34.1494 23.3866 34.216 23.4222C34.2825 23.4578 34.3392 23.5093 34.3811 23.5721L40.8582 33.2878C40.9041 33.3569 40.9305 33.437 40.9345 33.5198C40.9384 33.6027 40.9198 33.685 40.8807 33.7581C40.8416 33.8312 40.7834 33.8923 40.7122 33.9349C40.6411 33.9775 40.5598 34 40.4769 34.0001L35.2216 34.0001ZM33.9997 35.4722L30.092 41.3334L37.9075 41.3334L33.9997 35.4722ZM30.092 32.1667L37.9075 32.1667L33.9997 26.3056L30.092 32.1667Z" fill="white"/>
    <defs>
        <filter id="filter0_i" x="9.47754" y="9.1167" width="46.5268" height="53.2493" filterUnits="userSpaceOnUse" color-interpolation-filters="sRGB">
            <feFlood flood-opacity="0" result="BackgroundImageFix"/>
            <feBlend mode="normal" in="SourceGraphic" in2="BackgroundImageFix" result="shape"/>
            <feColorMatrix in="SourceAlpha" type="matrix" values="0 0 0 0 0 0 0 0 0 0 0 0 0 0 0 0 0 0 127 0" result="hardAlpha"/>
            <feOffset dx="-2" dy="4"/>
            <feGaussianBlur stdDeviation="10"/>
            <feComposite in2="hardAlpha" operator="arithmetic" k2="-1" k3="1"/>
            <feColorMatrix type="matrix" values="0 0 0 0 1 0 0 0 0 1 0 0 0 0 1 0 0 0 0.28 0"/>
            <feBlend mode="normal" in2="shape" result="effect1_innerShadow"/>
        </filter>
    </defs>
</svg>
