<svg width="68" height="68" viewBox="0 0 68 68" fill="none" xmlns="http://www.w3.org/2000/svg">
    <path opacity="0.09" d="M30.2412 2.02072C32.407 0.770295 35.0753 0.770296 37.2411 2.02073L59.4618 14.8498C61.6277 16.1003 62.9618 18.4112 62.9618 20.912V46.5703C62.9618 49.0711 61.6277 51.382 59.4618 52.6325L37.2411 65.4616C35.0753 66.712 32.407 66.712 30.2411 65.4616L8.02045 52.6325C5.85465 51.382 4.52046 49.0711 4.52046 46.5703V20.912C4.52046 18.4112 5.85465 16.1003 8.02046 14.8498L30.2412 2.02072Z" fill="#FFB800"/>
    <g filter="url(#filter0_i)">
        <path d="M30.7412 10.9204C32.5976 9.84865 34.8848 9.84865 36.7412 10.9204L52.0046 19.7328C53.861 20.8046 55.0046 22.7853 55.0046 24.9289V42.5535C55.0046 44.6971 53.861 46.6779 52.0046 47.7497L36.7412 56.562C34.8848 57.6338 32.5976 57.6338 30.7412 56.562L15.4779 47.7497C13.6214 46.6779 12.4778 44.6971 12.4778 42.5536V24.9289C12.4778 22.7853 13.6214 20.8046 15.4778 19.7328L30.7412 10.9204Z" stroke="#FFBA00" stroke-width="2"/>
    </g>
    <path d="M35.2221 34.0001L40.8587 42.4545C40.9046 42.5235 40.931 42.6037 40.9349 42.6865C40.9389 42.7693 40.9203 42.8517 40.8812 42.9247C40.8421 42.9978 40.7838 43.0589 40.7127 43.1016C40.6416 43.1442 40.5603 43.1667 40.4774 43.1667L27.523 43.1667C27.4401 43.1667 27.3588 43.1442 27.2877 43.1016C27.2166 43.0589 27.1583 42.9978 27.1192 42.9247C27.0801 42.8517 27.0615 42.7693 27.0655 42.6865C27.0694 42.6037 27.0958 42.5235 27.1417 42.4545L32.7783 34.0001L27.523 34.0001C27.4401 34 27.3588 33.9775 27.2877 33.9349C27.2166 33.8923 27.1583 33.8312 27.1192 33.7581C27.0801 33.685 27.0615 33.6027 27.0655 33.5198C27.0694 33.437 27.0958 33.3569 27.1417 33.2878L33.6189 23.5721C33.6607 23.5093 33.7174 23.4578 33.784 23.4222C33.8505 23.3866 33.9248 23.368 34.0002 23.368C34.0757 23.368 34.1499 23.3866 34.2165 23.4222C34.283 23.4578 34.3397 23.5093 34.3815 23.5721L40.8587 33.2878C40.9046 33.3569 40.931 33.437 40.9349 33.5198C40.9389 33.6027 40.9203 33.685 40.8812 33.7581C40.8421 33.8312 40.7838 33.8923 40.7127 33.9349C40.6416 33.9775 40.5603 34 40.4774 34.0001L35.2221 34.0001ZM34.0002 35.4722L30.0925 41.3334L37.908 41.3334L34.0002 35.4722ZM30.0925 32.1667L37.908 32.1667L34.0002 26.3056L30.0925 32.1667Z" fill="white"/>
    <defs>
        <filter id="filter0_i" x="9.47803" y="9.1167" width="46.5268" height="53.2493" filterUnits="userSpaceOnUse" color-interpolation-filters="sRGB">
            <feFlood flood-opacity="0" result="BackgroundImageFix"/>
            <feBlend mode="normal" in="SourceGraphic" in2="BackgroundImageFix" result="shape"/>
            <feColorMatrix in="SourceAlpha" type="matrix" values="0 0 0 0 0 0 0 0 0 0 0 0 0 0 0 0 0 0 127 0" result="hardAlpha"/>
            <feOffset dx="-2" dy="4"/>
            <feGaussianBlur stdDeviation="10"/>
            <feComposite in2="hardAlpha" operator="arithmetic" k2="-1" k3="1"/>
            <feColorMatrix type="matrix" values="0 0 0 0 1 0 0 0 0 1 0 0 0 0 1 0 0 0 0.28 0"/>
            <feBlend mode="normal" in2="shape" result="effect1_innerShadow"/>
        </filter>
    </defs>
</svg>
